<mxfile host="65bd71144e">
    <diagram id="x5OgK8sk6FewFtznTZ9T" name="Page-1">
        <mxGraphModel dx="1386" dy="786" grid="1" gridSize="10" guides="1" tooltips="1" connect="1" arrows="1" fold="1" page="1" pageScale="1" pageWidth="827" pageHeight="1169" math="0" shadow="0">
            <root>
                <mxCell id="0"/>
                <mxCell id="1" parent="0"/>
                <mxCell id="2" value="" style="shape=image;verticalLabelPosition=bottom;labelBackgroundColor=default;verticalAlign=top;aspect=fixed;imageAspect=0;image=data:image/png,iVBORw0KGgoAAAANSUhEUgAAAP8AAAIICAYAAAChADhCAAAAAXNSR0IArs4c6QAAIABJREFUeF7sXQecFMXyrt1LBMlREEGCBBEVUVAw4DOBWTJHjgcoSRQjikr25KEIgoCAIKI+/xhQ0hGUYAKMKAIiKkhSMpdv/7+v92rpnZvZmT2Ct7M173fv8HZ2pvvr+qqqq6q7PXSWL5/P5x0/fnzF3bt3Vzt69GjRUqVKeS688MIysbGxVVJTU6vn5ORUysjIKJ+enn5eZmZmQkZGRmx2dnZMsWLFvLGxsR6v15vj9Xp9e/fuzY6PjyePx0M+n0/9LkgXtwm/cRnbx383+0zvB+7jZ3Ff9Wd7vd7A5/oz8Qwn7+Z3Gb8bql063twmvt/j8WTh1USU4/F48Dvb4/HkxMTE5Pj8L8Hfc/A7999ZGE98L/dz/n5m7jMzc9+h/tvr9ar7fD5ftvYs9Q6Px5OND2JiYvAZ+s/fUffHxMTw99RzcnJyfLnypNqGv+W+Uz0bV24fcL96ptYv7k/gM74nOzsbMhsfg07n5MR5PB789kKO09LSIKhZeG5sbGy6x+NBG9MyMjLS/vnnnxM7duxIPXLkCBUpUuRkrVq1/jj//PP3jBw5UrXrbF9njUEzZsy4fuPGjSPLlClTqlatWqUqVqxYoUSJEgklSpRQfUKH9+7dS3/99Rf9/fffdPToUfWTkZFBWVlZlJqaitEIkCg2NtaU+EYh1klnJuDhAmr2DLvnhquYzBSa3ner59m1g/sKhRETE5NHqeBzxtWIC76DH/1CO/BjfBbfg79zX/TvGp/F/eF2seLSlQw/y0wpGdultxGfWeHF7ddx0+/Hv4G7UYnq7VRqTjUqGDE8Oz09nb7++mv1fvwA28aNGwdwR59gwEqWLEkVKlQgcCEzM5P27dtHu3fvTv/9998P/Pzzz//s2bMnteZFNWf36ttrRvPmzc+aIjhj5P/444+Lp6Sk3Fq3bt3bcnJyulWuXDn28OHDCoDff/+dVq1aRb/++qvqLEDQB1yp1xwYBv8F8M877zx1Hw8klIUdEc2Ib7TILEz6AIciUX4/M/bP+F4rJWT1Pv3vxj6FwoUxcfIdvU24n8fEiKsZuYzt00nL3oyRpKzgrDwL/e/6d3VZYZzNlIT+mfHfuqyxMuE+6FhxX/W2GnHSlVnx4sWV0uQ+Hzp0KCDTxrbq37vkkkuoRYsWVL58eTpx4gQVLVqU/vjjDzp8+PDWf/7558W0tLSfFi1atJY9Eyv5CefvZ4T8Q4YMefmiiy5qffPNN8N9944YMUJZc3QcZEdHoARAZvzExcWp/2Yti98MrtnAsiY1fmbsqFHIsrOz1SDYfU9/Dt6lWxZ+N9rMg6dbN34nD7hxgK2UD57B/WbrY0Vwo6sdisj6vUby4H3GvukCzzhw24x94e/zWOnv4s/4b4w7xpvHGrJg9HLMrLFRmeEejCUTnLE2I6SOjZVC4nuYfLqCtFISZrKm94XbBK+V36srAX4H+oF78BvtBybwdvGd0qVLK3z2799PCQkJygA+8cQTdPnll9PSpUtTV6xYsfeWW265Y/jw4T+FQ3Kre/NN/vnz55faunXrkEqVKg0///zz49HgefPm0Z49e5RrA7IUK1YsQHYAwZ1Gh/nfugY2Wgtjo63cOSMp7SyTGRhGra8/00rrOyG67r6Hsj66AJpZPFZgukDpbcS/zSwpk9KJR2G0aLoQ87v4b2ZKxkyR6ONrJH4oPPT2hhp34MGKgd12XYmxctaVkhHrUIrbSlZ0xWFUOFbKRB9XvJONIE+9wAnmRaFChdQ04p9//lFKoHXr1lTlgipUvkJ5+u677z774osv5nbq1GlO3759VZwjP1e+yD9w4MD/VKxY8f327dsXff755+nzzz+ntLQ0gstTpkwZpbUYALgw8ALQEVzoKH7QcVgFO4tpRmwrQTYKbyhAzISY7ze6u0YB0gU/lCKxu08nrFEgjQJsVJKhhNIMHysLH+pe/R26N2BU0niG0XXWyWZsq9FzMZLFSimEGl+dWGYelFEJmb3DzGswa5sRF5YPM6VtNW6QMSgt8AKEx38XLlxYGUzwg5XD8ePH6eTJk4pTuB/KYMaMGYgb+ObMmfPr22+/XTM/xFdjGM4X+/Tpc369evVGVa9evfuuXbvonXfeUcQG6dFoNBCdQYPhyqCxTHB9/h5qcJ0Q24lwOCGLmVBaPTtUu5x8FkqIjELj5HlW42bm6jq51ylep9M2K7ydyCATzOm9ofpjJ2NWnxuVeTjjZjcGeBb4wl4x8wYeAJQC/g5uQUlAGdSuXZu6de1GGZkZR7/55pvnZ82aNcEJNkGKy+kXJkyYUD4tLW1f586dqVu3bipKDyvP8xSQ/eDBg6oDUAQ6+Dy31903K4DtBsapkIZ7H5M+3Hadbnudft9pf8KJb+jvNlp2o6V00k4n9zh5bjhEN8NFj2049Wyc4psfBWYcEz1dG2q8mOjgFrIDHDOD9YfnjIB6w4YN6fHHH6cpU6Z8WqFChZunT5/ueBrgyPJPnDixRdWqVWcdPny44tSpU5X2KVu2LCXEJ9CRo0eUy48OYa7PYDPhzdzNcCy3Dna4wuVEsdmRxanwWLmdodoQTn+cekt2z2Ri2Sliu+c4HZdwnmMkoFPsnWJs9Ir0GEQ47QznXjv5ciKjeB+sPn6DZ0gRYqoA3sHLbtCggTLIW7ZsWRwTE9Nh/Pjxx5w815b8IH65cuU+3rZtGy1cuNCfoyxfgTKzMlU0H51DNJ8j12ggd9iK+JFCfrNBNgbw7EA2PiMcwQnnXm6HmbAZhZ7vNQuCmVlAo4cQzvjlpw+hLL8TPEMFI51ablbm/D47ZWlUhqFiHnYyY/xc7w+8ACiCUqVKKeuP2hjOak2ePJnWrl37aVpaWovp06eftHtPSPLPnTu3fOnSpb/ZsGHD+R988AGVKF6CypUrR0ePHaVjx46puQi7izxgOuFPR3PnV2jsOmz83EozW7XdKpJr9d4z3Q8nmIZ6p9VnRmF3atnzc5/R9TdmJKwIHqqNZu2wCrg6wSccsofCID/jbyfDwAtKAF4A4m0IqqMoDtMCpAY3bdqUMmfOnJvtnmNJ/ocffrhiuXLl/sLDX3rppcD8HvMMBBzY2kPrACh9zngmLH44oDkVCh0MPWcdjjUIV9jD6YcTi2q0itx3J+1y0pZQSs/u+04+Z1Lp83KrVOrpKCSrtth5bjqedv0xk5twv2NH0FCfw+1HIBCxN3gDUAAVK1ak5ORkmjp16rwGDRp0HTly5KnqOcPDLMn/+uuvz7jxxht7tmnTRrkXmOPDzYfGQQTS6NqHchfzA2g4IIZLfr4/HKuvE9PufXafhxpQJ5bZieVyotCcYOzkHrOxD9VHPZVqZuXNoup4npPUKY8TP9eJBc+PfPJ79Oefifl9uMqAswDwyDktWL16dRo6dGj6hg0bbnv55ZfXWD3TlPyPPfZY0xtuuGHtww8/rIhftWpVldLDw1FwwME8K2tjZT2cdCwcYXNiKY3W3qwNdu80E1Cr54QTRLJ7r5O2O7H4RnLajY9TkjlRMFbW0egthnqWTmQnii8cb0jHJtx+n02yG/upKxkjVjDIUAIw0LD+KIXv378/bd++HRm4aitXrtxlJq95yP/xxx8n/PHHH/tTU1OLv/zyy1SzZk0VWUR6oUiRImqeoXcajTT7W34EI1wyO7E4uuCEa+mtrIgdaZ1afrvnhEN+u2fpn9uR34mSzu/4OiGMsa2hrLeVYjaSxa7P4RIfz7PDPL84mrXF+Ddj/0B+GGpk3BAExPx/wYIFNGHChDEfffTR447In5ycPLRNmzbJ999/v7of7gRW38HVt1pN5cQyOgUqlNvLrp8T0uv32L3bietpp5jya22cCIgTQbPDzc5DsMPIrp123+fP7e4zKlwec12h6lhbjZ2djDhph513l99ncB+trLmT5+oeJj8PgT9k4/B9xANatWqFeEB68eLFSw0dOjTV2J88ln/evHn/LF68uNQ333xDVza8kn7Z9ouy9DzPt9KooRrspDNnc7DCaZuTttpZkdMlipGooYhtTGvpZDE+J9SUxEm/7cbIqt/5sfZW/dDb4MRas+J04gmEIrvxMyd9snqeqRXO3Z8inHHg5+gZKEwBkAZEAPDPP/+kadOmoRz423Xr1l0ekvxPPvlk98aNG8/CXB8WH+W6CPKB+GZA6w0Nh2DGRjjtsNP79OfbDZKd12K06OFYWCsyhNMPM6vPY2HEXxcCs6CZHVmctsvuPv1zPQvkVCny90+3vTp2xqmDjpXREhvH3MxrssPArq/8Tp3Ap/NM7g+vscGzsEagWbNmKArK+vnnnxssXrw4aDVgkOV/+umn/7yg8gWVk19MpgsuuEBF9hFAwDzCirAMlB2J8kt4M+BDAcvtCZf0xsHg/w4lCGbfOV3CG9/nNE6hfy+UUrbyFJxa9XAE1CqFp5PNSn6M7dEVgo678e9W8mKFj5lcmilXJ2R2MvZGpeNElo3Kye47SMcj4v/bb78pr/2rr76iAQMGDEpJSXlJ/26A/MOGDbu5VatWH40dOzYB7gJqiXfu3KlcCKuAC2tWfWWeU7KGI0ROBFMXIrtnm32eX4tu9y4nbTcbTCdK7HT6YbTOThWZ0/6aEdROaPG5TjyjojpdT8Cuj0aPI5y+Ounb6SiQcL4Ll58XBMFz79OnDwz5z+PGjatrSv7//ve//du0afNK8+bNqVGjRmq+gGIeVPHhMsvr24GTX0I50aDGe9jKoOgo1DZPRqHMr0DZWSwzi+JEQFihMhF05eHEajhRCKczLnZjrsuKE4E14mjmQXK/7aaeVmPppM0sF7jXuGeCk344GdvTfU4430eGDmsAQH5k6rAmZ8uWLeWSk5MP8nMClv/FF1/cs2fPnvOXLFlCNWrUCGzKoa/T1gXTSovaAW33eX4sJdrI7YQA6BuFGLV5fknp5HtIt+CHcdL7qreDFZVOZiMJdAtoZZGMEV9dgFl58Jxbf4bZ2BnHRa+E00mFfxsVrFlbGQOzNhrbif82U9iMCZ4BS8bbv+ljEUqenMqaXm3I7wxXiZnJh51hCYfM4d4L64/KP1xYlzNmzBhatGjRurVr1zYLIv+8efOK+3y+I8jro4gHA4F5A6w+A2gk/tkkv9NBY6HxemPI64nN3dHFS+Tx7xOI1Ie+X6BRaJwMjhNLCuFBbIQ3LNGJrAswv5+LpPQ9DvA3FkLeIBP3c/k0PkMAh/+mWyjcz54ZFB8Tn/vOz9afr7eF34E8MZ7L9/MY83NYsfLf8d86aXmBCf9dt6BoF/6u943/xvezjOlk1OWM93V0Sn6nhoTfZ3yvXdwoFCHtjI7Zd3XFYyar4SgAGCEstwcHoDg7depEv/zyy97y5cvXfOGFF04oGcH/PfTQQ680adKk/wsvvKAKedBpVPPhSzqARutk1QEnoFjd45T4uM+/4UEMZWbmUGa6jzzko7jYeIqNiyWfFzsH+QILHsw0s5O/2Qka2sGblyA7UrlyZdPdY40Dy/3U4yW6tTVaIBZM475wulJm4nKbjbskGa2/UYGDhMZ5NisZo5eiywV/ZiQLP8/s73guKx1WVuyl6JjjHkw/sVcE+oM8tv48o7yY/bceszKOpxlJnU6vzJ7rVH7tiGylCMzGzOpZWHxXqVIlFbivUqUKtW/fPnP27Nn3rV+/fnGA/F26dNncvHnzy7EkENoC5YG8k4iV8Ft18nTdsHDBi42No/Q0H2VmZlMOFII3hkoXL0HZnnRKSz8R2N/NCdHt3m32OQQRpc8QBEyXMMcy3seWnoXc+LluPfleo9ttZsWs5sB2/TAqdOOzdaHmZ+lTFaMR0EluRmBup05afTpgJBsrNP7N+ECYsVGMvplqfgyQVf/tCOnkc6fY2z3LqRcQSklAaWKhD3YBxpWSkoKNP7otW7ZsjpLFt99+u8T333//VZ06dWqNGzdOpQgwR4CGDWX1zDpp1/HT/dzYHr/b7KXMdC+Rz4stjcjr8VIFbHYQm00n0o6q+b/+3tNRTlZ9hlXChfQoSiudKBrjPXYuph12ocYqlKBZKTQnU6LT6YNOeD1mYNVWeACYWnEUW1ekRgI4xYqVix0RnXzOnpmTd4citt4vo2eheylO2sTvwXQR2C1dupReeeWV+dOmTeuk3vPII49cXb169ZWpqalF58yZo4p7sEUXH66Bm06XPE4BcSKkuqD456hIRcSoH3SwfPGS1OW6y2nRT9voz/17Auuejf0ws6ThWhEWHn1TE7ZKdgogHOUZDv5mVtsO11Dksxo7uzHVBVX3fMyUlJWi4WfwRpf4bz31bMQlXIWVX/KbKZtQFliXNbupgt4H3TsyyqvVVEbHF8YRLj8W/ODMjOHDh9PPP/98aN68eaUV+bt06XLzPffcsxyLALD9NgYKgSt9Sy6nViUcgTYCYidMuF/XrrifpybZ2T7KSMuirPRMio+LpYaX16dfd/9OR48dC0Sm8yPETtqEeyCcfDiDHtDSBcLMspu5yEaBNquh0IlltAY6Yfi7+G1HcG6flXDq7dIXcuHvHIjkMeIpAj7T96vDf/Nn/AzGQA+2cfZGDzzi2ZBJXlxmpsx1vO3GTm+jUyvKVpnfHa6ysXqP3lY7UpuNt9V3GEfgtnv3bqpVqxZddtll9Prrr6tYn6dXr163dO3addmAAQPUnBWLeHgOx5rRaSfzQ/5wFAsPLr+HFQAIl52VQxlZmRQXH0der4eyM/1HfnHQMhzy2wmOmVXHdxD4wzsZPxYSXSh1EvLfmQDGQTTOhfX34jPer54JqOOjKxuO1uv3MzGN7dHbxONv1g/9MzyD5+X8Xv053A8mM+PD79b/zopK7zuehU1lePvqcMYylDcXzjibKVwnSsPuHmMbzFx9M29Ox8eK/Pg7bwPOG38kJiZisw8/+ceMGdPhrrvuevPee+9VJ4PgaC39/Da7uWgo9zkUuOEAr7/D+D0WQt3d5u2PdYtk54Y7VUKhtDfIhdwq78NuHDSdBEwOtoC6gtCDfWw5+W8cIcf9urVmXPT0Gf9Nt3K64jTWcBj7ZpV90MdAb4ceuORx0RWSMZfP1l4nP1tX/j4wg+DyzrVWhigceXIi0/p4hFIgduTWPRQzEhu/b1T4dgYg1PsZK6TswQUU+yQlJdEdd9wR36hRo0zPpEmTBtx+++2T77zzTqpbt646NJDzz7p2N5LDSUfOBfkZXN1F1PPn+bESdu0O5Zo5EUKdEHbtM/tct0K6YjQjhl179LbYCbKZsrH7jpmyNnPZnbjEod5l189QBsSuD6dLfjvDYyZPTjyNUHLI74Qx4M0+we3Bgwejfqf8wIEDD3imTZs2sEmTJpPatm1LF110kZq7GiupzAbwdDWw08FCJ+w0dSiC5Gfg7Npm97nZO419MCOdruWNqT6jtXUisHbttPvcST/MPKZwZMOIg/5dMwKYtTnU+/LTxzOhZMLxJM1cfSfjy/0OpQQQ8MPhn5AnZKWGDRuG1HTdMWPG/OyZNWvWwFq1ak3q1auXKlBBRZAeIApXIzsF2+l9duR3qpj0+6yERbcOZ1oAzMhvN8B2XkF+FFs4Qplf8ufnHWbK0I78oVxi9i7CkTO78QjHY8kPBviOnWzqz3Vi+TEFRqEPcv6oR3nkkUdo69atTV977bX1nvnz5w8sVqzYJKQBUBCAm6xKYp10yMoKG7VUOINiZfnt3mVsr52wnC3yo53GtuqW3Y7ERhKEY1nzi4HZ98z6oRPCDF87r0yXC76XFYEV2XRFEYosVu11QvJwjd6ZMhZOyW/EzUoRgPyo7kO5Psj/2GOP0ddff33PW2+99YHnrbfeGpyWljYRBT5Yxgvyc6DMbuCMHc6PpbICLZSrn5/3OFE2Tu7Jr/bX+2Mm5FZY6kQI9e5z1XYzsut/C7e9RmHn8x2tPAGn5OA2MSnspo52CsEpvk4MpN27wv3cTOny3zDnx3QeWTxM6R999FFav35950WLFs1T5D948OBElPZibgDy8+YdBZX8RhKYCYpuxZ0KjNMBDuc+J4rKjDDGNofj5Zwpq8Xt0onD/zauGwgVtLLzbPTPOQMQCmMn+OsZDr0uIVxi5VfZn8738tNG43d08mP3bQT7QH6c67d27doB77///hRF/n379k3Eel+2/Ga103aAh6so7ATC+Lz8CL9dm8MdoFBKRlc2Zv+2swh2bWUXNj/BIbtn52csnEyhjFMbvR3G7+sKMNTYO1XkdpbeqHDtMMgPIa3GLD/P4u8YcTPDQ5cRWH7U72B/DpAfbv+6deuGf/DBB+M9U6ZMGbx9+/aJn3/+uXL32fI7Id/pCrQZCOHM761cZbt2hfO58d4zMcc0I6NZDMCobIwEcUqE/JDfjjxOlJ2TKYCdQsB7nCgao6fntP2hiJgf3PIrW04Vgh0WRuPA5MeWXih4u/baaxHbe3rcuHHPItU3eOvWrYr8cPdRpWZW2psfNyw/4FkNmpkVsQPiTCgHp9MHuxhFqLaGq2iNbbLzYMIZByeksXLN7Syd/nk4bQrnXiP58vtdO0zPptJwqgjM7jMjPxbr7dq1S5G/SZMmWLw3ZuTIkY+D/EO2bt36IsgPd5/Jb+e6OgEnP8CbCV8ol9+qnU7ffbr3mVm3cMls1Qb+u5WLatd2u8+tXF2774VrCKzGz07IjZ6OVXsh8HosQpcJu77YtcGJnIcyMk69MyftsLvHLO4Cy1+tWjW1rFeRv/E1VLtOvReffPLRhzzTp08fum3btuR169Yptx95fn233nAH2onSCEfown0/C4zTQXdyn909enDJqm9mAmLlDfD77KYYdsJg1+5wxsHMnXWilO3cYKfja4UFexNmpcN2+ITzeSgFnZ84jNN3h6M8zMiPIp+LL75YbcYL8l9zzbVUt26dlx577LFBnjlz5gw9evRo8vTp09VGHkbLH0rz2QmX3cDqwh+utTS2y64tTkkZrvLSrbPVgIZj+Zz042zfE0rQzbwQ/X5d+erCeLrjG4r8TlzwcxnxdzI+TskfSqaMZDdTQsjzg/xY0gtFgJ18//7776lTp07tr8jv8/mSx44dq1J9Rssfigx25HbawVDVb3iH2bLWUJFkJ+89E213Mj824mfmmRgJFYp8TvrmRIGxxXTyvPxild9+6N8LRXoWdjvPy0kf2ZiEUlh2zzkXpDcaPb29jJX+NxAe0X5YfnD7iSeeoGXLlk1fsWJFX0V+j8eTPHr0aEV+WH4snbQTILuOhvN5OFbBjDx2bbVzPc1ccruB5s/tFIBTAtjhFU4fndwbivxOlJFde+0+14VYf1+o8Q3lvTl5n9MxdYJfuDIV7rvtvBkzFx/fMSovWH4U+SDaj0weUn0pKSkzly9f3kuR3+v1Jo8aNUrl+bFPmk5+M8sVahDsOmlHFqNmswLZzv08nTY6ESSOeDsNUJppbH5Pfi3r6QigneXXScjts7KKTsZCf4YdwZ3gr/fdiUzZyaURS7u5drhtDOf9TohvhiHabLT+bPl37Nih9prIQ/6YmJjk559/XpEfe9CF2gDDzErbAWU1UGZC45T84VhrO2Fz+iyz55gJgRNrr2P2b5DfCWGs+mY23roiM7NKdmNgJcx6G8w8BIydk76EQz4nbQ3neeHca8RW778eI7Oy/Pq7cA/Ij1Qf3H5YfpT3rlixYlZKSkpPz+uvvz40ISEh+dlnn1ULe3i/fisSOhHsUJ11kg/PL6FO19pbRd+Nz82P1T8bSu1sW36r54cSUKux1wll9n0z7K2UjFHw80N+Y3vCsfx2ysEKA+6PldFzYvFZjsyCe/jMGAOA24/tu7Zv367m/FjVt3z58tmrV6/u7pk5c+bQwoULJz/33HNqzo9tu/X9+sOxilaNdzI4dtbvdKO9oYTSiWa2c5NDkdvss/z293T74WQswm2vU0MRykMMx4122genWIXjuVpZYicyxPfoUyC77xkVhdn7QykbkB8BP7j9sPxYz79ixYrZa9as8ZO/SJEiyvKD/Gz5Q7l2ThUC3+dksKymE3aksvs8lKcS7qCH8kicKKdQ1i8/VtzoBtsJEj7Pj+dlR0w7Raa3y2jh82NFnciTnRU1tslJH41j7NRTNFprp+Q3806M7TTO8XWZwGds+UF+BPMfeughWP43Pvvssy6qyKdEiRLJzzzzTBD5nQqjHWh2Amf2HifPdHJPKMVg9X0zEodKJekDaabAzITQSomEK0x2ZLcjiVF55MedN1ozK0HX79MF1uk4hiNHdriYWWC7dlhZ4HAMiNN22Rk043OMUwD+b57zw+0H+eH2Dx06NJj8ZcqUSX7yyScV+bHyB9sjmw2qU0E23mclhKFcGieD4QTMUJbfyfd1HEKRlj+zssahrL5dX8807uE8z8ojC+V1hFKIxnc77Tvuc3pvOOMaDtGM8hrOd8Ntk1P+4T6z4B//DZYf5b3YuhvBfFj+FStWzFuzZk1nZflLly6d/NRTT5lafieAh7rHifUJRxjDATxUu5z0y4m1CUWOcAXdaZucYmCHvZP2WSk8/m4408NwBNqsbXb4mJGTsdK9KqOH5dR660pNf65du8IhvtU7zPqhj4GVN4BoP9bz4yAepPGxgefSpUsXrF+/vqMif9myZZOffOJJKluurAr4Yatf/cqv9bSbX4YCJT/EtRsEu8/trLwTsljhZvduu8/DVZD5UVxOxtwJgZ30xck9xvbk5zuhCHI2PJRwiG6GpZkVN+JgFXvQ7+PngPwXXnihIj/m/HD7lyxZ8ua6desSsZ5/aKVKlZKxwweO9TEjf443ng7UaU+Zhcvywb6578FZWdZX6E8tvpevL+UH8nP9nbOAlV0XXIelsw45u+sUeDjBItzv+L/tw1l25MvOJsrOoLIHd1L9nevIl5NJvpwsnK+eO1XB0z3kwclJ3lj6smoTOla8Annji5AnNoE8MXFE3ljyeGPgw/t/8nnFLX4k6Ju8hx928oHlHzJkyCm3f/LkyUOrVq2ajA08cU5yKDwRAAAgAElEQVSf2Zw/J6YQ7avfjTKLVMhnk+RrgoAbEcglf042+bIzyJeRSlX++oFq/7mZvJmpRDlZ5MvJVgpCXR6QP0YRfWPVJnSgTFXyxBclT1whpQA8MbFEnhilJHK/EDZoce8l5SE/du/Ftt0gP1J9S5cunbtmzZquOLRjaM2aNZPxR5AfqT4O+LFblBOTQPsu6U6ZRYX8YY+GfMHFCOSS35dNPpwGnZVOvowTVGXvFrrkj43K+ivy44cvVgAxsbSq1s2Udl4Z8p5BBWBH/txUn7/IJzk5eWi9evWS8UeQH0f6FC1a1O/U5Gossfwull/pWtgIVCldmNpdfQHFx3ro2z+O0JLv/vIfBZ+VQb7MNMpJP0kX7P+Z6u75lmIy08jnyyZPLpcUpwIeQAylXncXXX/XrbT0u7/o611HTtsDMCM/Kndh+VHkgzl/SkrK7JUrV3b3TJgwYWj9+vWThz00jEqXKR1k+RmVnNhCfstfpHwQUJiZFC8cRxlZOZSa6dduMV4PFSsUS4dPZgbdGxfjpZJF4ig7x0eHTmSoORamNiUKx1Fmto9OpGeFPQjyBUHgXCIAWX216+V0Q23Evk5dOT4fXT96Ff269whlZ2aQLyuNfBknqepfW6juX98R5WRSo5uvp3/27KUd3/0YmAIULVWSpn2+NPCgjb8eoJbjU05LAZiRHyl8GHUs7Mm1/DNWrlzZW5H/0ksvVZYfm3nobn+A/BZz/o5NLqDzCsVS2fMSaPRHW6lyqcI08Obq1KBKCWrx4voggJ64qzbtO5JOl1QuRit+PECLv9tLEztcSnsOp9EXOw7Rp78cPJfjKO8SBMJGYPMzzalCiUKW3+sx4yv65Js/KScrnSgr3e8BHNhGQ2+5mDo/lERPt+lBO779PvD99g8PpDt7dw789+6/j9MVj7x7WjEAJj977fBI2KPHgae5RT4zV61a1StAfvwRJ8yakT87JoH214flN5/zP35nbUV+vl5KbEAD53+n/nN82/o0ffVOmtDuUurw6ldUsUQCze/biBKnfU3vPdCY2kz5krKyfbTr75NhD4Z8QRA4lwhUKlmIPnv8eiocF5PntTv2H6frRq8JzPH9CiCNWlxakWYPul3d/3Tbnn7LnxsDaD/sQbqzT5fAs/78+xhdMXjuaQUBzciP1br79+9Xpb6I9i9fvtxP/rFjxw69/PLLk0F+tvw850eroEHg9ueX/Jy1eLPvVdTltY1UoXgCLR5yDb24dDv1vqEaPffBzzT01lo09K3v6Mc9x87lWMq7BIGwEPB6PPRIy1o08OYaQd/bsP0f6jDtK8rI8kf2OcjX98aL6JnWlwfufaZ9H9rx7Q/k8+UoBWAk/4F9B+m6HhPo79LIAhTJlwcQ+7++QW1jy4+jupDzz432v7Zy5co+AfKz249U35kkP7fknf5XK/JfULowzerRkGZ8+huVKxZPLyzZTtfUKE2lz4unxd/uDWsw5GZB4N9AAB5rkxql1asR22o5cT39dpA9V58K7rVsUJ5e63FVUPP6Jj1Hx9etJG9WOhUuVoQeWzCNLqpxSpEcOnCQHrmzE60u35AOl6ycLw8All8vhgL5Ub8DXqenpyvyYxuvlJSUvor8V1xxRTLcAbj9Ovn1aL+y/BapvlBu/w21y9CWPcepS9Mq9P6mv+i6i8vQN78foV8PnKRPH7uObnthHU3vfgUNXfA9bd9/4t8YS3mnIBAWAkUTYuj/HmxCdc8vRp1f+5pW/xwcr+p9Q1UaeW+9PM+89el3af8X66j+7s1UpEg8DZ83hWrUqhm4D3Pype9/RO+MmUpfVrmaDpWsErYHYGX5mfzw8FesWOHfww/kv/LKK5NR81uqVCk15zdL9YUif4sGFeiT7/YFOtG+8QX01hd/qv9uVqsM/fzXMTqSmkUj7q5NW/YcowW5nyXEemlCu/o0JWUn/bxXXP6wJFBu/lcRQPaq/00X0aTlO4LaAZme2uWUqx+oAvT5aOTCz2nHH/uo2t4fqdbeH+mGO26ilj06qqxXyfMr0PEjR+mN8ZOoSv06tGzqfFpfqRH9XQoKwHkhkBn5OZYHtx/kX7p06fRVq1b5yd+wYUM15y9RooQi/3nnnac6FGT5L7UO+P2royAvFwQKLAKnKgAxx1dBQNQBZKRS5QO/0KV/bqQiRQvRncOS6PiBv+mbJauo9vWNacuq9dSsc2t6d/RU2lDtWjpaopJjD8CM/IjloWwfAT8Y+ZSUFL/lR6rvsssuU26/bvn1eQOKfEJZ/gKLvTRMEPjXEcirAFQdQPpJqrr3J7p43w8U58uie4b3p28+TqHjfx+i/yR1ob3bdlKJiuVpycuzaV35hnSw9IWOFIAV+WHUMf+HkV+2bNmUlJSUAZ7Ro0cPvfrqq5MHDRpEJUuWDFh+If+/LjXSANcgYOIBZKESMFVVAl66ezPFxHjo8hY3Uu2mV9OerdspNj6eqlxah/7v+Zfon/2H6NOazSn1vPLkiS8cMgtg5fajyAfkf/jhh5Hqm7Js2TI/+Rs3bpw8cOBAlerjgF8Q+eOL0uHb/0vZpau7ZjikI4LAOUUA6T2VBsRqv0zKQdlv+knKSTtGtXd9RVft/IzOS/BQnxnj6bslq+iq+1rShoWLqPZ1TWjvtt/o40mv07J6d9LuivXIU6i4f0VgHFYExhN5eTGQh7LGXqK6xUt6QXh49OB1dna2ivbnIf+DDz6oyA8NUaxYsaB0QY6Q/5zKibzMpQiEUAB1f/uCmvy6Rq0OfGL5Avpw3GS6tsO9qgb+1W5DqPfMF2hmvxE0r1FnyihWQVMA/hWBfgUQo8iv7wkA8jOv8W/s3gu3X1l+BPyuuuoqZflZQyDgJ5bfpQIo3fp3EQihAC7+/Wu6+tdPKTbzJJWrVpnaPvcIzej9EN05/AEqVaki/e/Z/9KhvX/Tsnp30Z6KdclTqFjuisBTHkD2+AZ5yF+8eHG1hRcsf67bP3np0qUPKvJjzg/yI9oP9wDk13cLEcv/78qLvN1lCIRQAJfs3ECNfltLnqx0Gr54DiUULUL7dvxGKa/OpY4TRihejrurJ71R+146UaIyeQpjCoBUoF8BZL9wRR7ycywP5M/dt/+lJUuWDAqQ/4EHHsiT5+d0ny/hPJnzu0z+pDv/MgIhFECtPzZSkx1rqGSJQlT9yktVufD9Tw2haT2HUkx8PNW8uiGtfON9WlGvJe2pwB6Avxw4Z2JjW/IvXbr0pWXLlp0iv5XlV7X9cUXpSMtJEvD7l+VFXu8yBEJ6AOvpyt82kDcrlS67/Qa1VVi9G6+h1bPeovPr1KLNi1equf77l7Whf0pXC3gAvsnXW8752fIHkR/RfgT84B4g4MdFPgx1dmwRIb/L5E66U0AQCKEAav6xia7dvopKlCxCfV4bR1kZGbR8yuv0Y8o6/4YgMbGUFVeYlte7g/aVr61iAJ7pLfKQH0t6Dxw4oFJ9OKtv2bJlp9z+a665Jrl///7K7TeSH5Zf3P4CIijSDHciEEIB1N+5nq7Y9TnFZJ6kkhXK0KHdf+VuN4qNPv0KAB7AR5feRwfK1iTvG+2CyA9rz3N+Jv+SJUv+u3Tp0iFqzg/yJyUlqYU9RvJj+21f/Hli+d0pdtKrgoKATQzg2u0rVRDw1J6A/h2BdQ9gSf176NAnj+fJ8yPaj/JeJv/y5cuTP/nkk2Ehya+sPn6E/AVFRKQdbkbAVAGcUIVA2BL8il1fUExmqokCiCFPDH7iaO7ujaZFPlzhB7c/D/n79esXlOdnjCXg52Zpk74VOAQsFcBxqv37l3Tt9tX+bcIDuwLnegC5RT5v7P0uKE0Ptx/r+XnO/9hjj2FJb/LixYuHecaMGTOkWbNmL/bp0ydoJx+2+gAHef6jLV+SaL8DSalRyksNynnJ6yH639YzuylpiQQP3XhhDL2/7fSe27p2HL279dQGq23rxlG9sh56dm0G5eTv9AqFzF21YmnZr1mUru1UbYSsRkkvXVLOSx+Y9KHXZXGUmkU0/8dTbUuIIapW0ktb/85xgL5LbgnhAdT7bQM1/O1zVQhkpgDm7c/dIDS3xJcr/LCTDxQBLH+A/OPGjRvctGnTib179w7U9mOOgBu5yk/cfudC9fodhSlpaSq9d38RuuPtM7cvIYg/585CdCSdqOtHqbYNGntjAq3clU3LduZVFF93K0pzf8ikl77OUM/Z2L0o9V+aSk9eW4juejf/bf6kXRFq/V4qnci01iAxXqIlbYtQm/9LpcPpwfcNaxxPd9WMpde+yaR5uQqgfFEPLbynMDV/M//tsgWrIN4QwgOo+9sGavLrZwYPwL8d9rwDPwX1BjxGeS+27kb8Lg/5mzVrNrFXr16BIh8c2uHNPTUEX0Ce/+gdYvkZ1W97FqVi8dZHKiV/CVL56JWNfgv2az///ghm189/51Dr/ztJhp3OKfmmBHpoZbr6ysyWhWjCFxl0beUYWvV7Fv113EdpFsY/zks09fZCdEExLw1YlkY7DgVbzDtqxtKkmwvRy7nEx/MLxxFt+ycnX55K8XgPVSvpob9TfTT3rsL08fYsysoh2rwP5t9H110YS6PW+ZVM5/px9J9qpza/fOHzDPpPtdgALNdeEEMbdmdT4ViiMRv83ylXxEPv3FeYbpwfZeRH50N4AHV2fUGNdq7XPIAcFf8zIz/cfmzgyeRPSUlJ/uijj4Z5YPmZ/EgJICoI8qOMED9CfudmIT6GaP7dhZVV06/nb0igJ9f4iWy8PmxThFq9d5IyDK7yqo5FAtbukrJeql8uhhb+FHwWgvFZhWM99GPvojR2QzpN/ybvvYViib7reR41nnOCDqX5rW6MhwjK7L7/pdI2g6Jw0vPapb208N7CFOslKhTrUUqk/fupdCTXqj94ZTx1bxBHbRel0o7DOVRIHUfnV5wnDR7Co9fE09hc0vO7Kxb10P/uL0xN34hC8odUAMep3q7P6eodnxHlZKgNQXEeyLz9PwQNG8/5mfw4k3PFihVjP/zww8cC5O/Zs2fQkl6x/E5EP/ieOmW89Pa9hanBzOC9CMMl/3VVYuiayjE0/nO/9Sue4KHFbQrTdfPMCXB1pRi6o0YsdaofR6mZPqo/I+9eiBfnknTA0jRav/uUpul6aRyBoI1mn/7+iXD7Wy48mefQy7JFPHQs3UfxMR66u1asiofgeuOHYAX1dLMEGrk2WEleUMxD/9eqCF11BtoX/ogWkG9YeQDpx+niPzbS1Ts+pdisNLVk+I2/vgk0GkqWN/AE+aEInnzySUT7g8mPOT8sP6/nB/lxs1rgI6k+R1LQrm4s7T7mo7V/BpvxcMm/qUdRmvFNBk3ZdIocyf8pRCUSiHp9nBZoS/OqsfTyLQl0KI1o1IZ0qlvaSz0vizMl/5be51HLt09S3bJeeumWQoqksPRv3FWIeixOo0xtdjD1tkJ0WYUYyraIscHK3/e/k7T3xKk5O7yKj9oUobQsH5Us5FVWCMG6F7/KoLe2+PsBIs+7uzDF5Fr+/23NJAT58JTF2zLJ6/XQI6uCyV+thJcWtSpMl886feXkaBAL6k2mCiCVctKPU/1dG/ylwDlZNPePL/OQHyf27N27V3nxTz31FPbwM7f8ZuW9Eu23l4hbL4qhJ5sm0P3/S6WDqcGBrHDIX78cvIciyjU/lnHqOQ0rxhCCeCAw5tS4YO1xLd7hDwAMuSrekvxXnR9DX/3lV0o3V4slKKq0bFLTjYdSTikUfF6usIeOZVrHFYrGEeF0tazc5t1UNYa6N4inxpViqPviVPp8dzZl+4hKF/bQmBsSaODyNJUBwPegsPgshw+3ZdHE/ySoIOYza9MJnkOLhcHeDbID77cubKrQ7EfFZXfkUQDYEzBV7QlYa/c31GTHapq/Y3UQ+bFvH8p72e2H5V+2bNkp8iPa37dv38CSXn3ffjzJF4+FPRLwsxKlemW99MJNhWjpr1k0SQuk8f3hkP+BK+Pp+gtiqO37eSP6sN59l6TSZ3+Y59JCkd/Ydsyvb6kWq+bpvT5JpZ8O5i+VhoDcjBaF1Jx+UesidPc7J4O8iEeaxNPs7zJp/0kfwYrPzs1Y1CjpUYTWyf/2fYWprSFeUrOUlz5oXZjqvZbX8l9RwUsHThL9eSx/bY9I1RBQANlqRyB1OCh+sjOo/q4v6MelTweRHzv2wvKbkn/06NGDmzdvPrFbt26qvBf5QONOPnD7JdpvLioIZmHOjADbq5v9c3TjtaFLUfr1sLmAYj7PAT/MhTf3KErXzzsZCJjpz7r/4lgqhpTf9+aBP6fkRzagSKxHWeT7a8fS9wdy6OtcryBcQsBTefW2QtRs3kllue9992RQnv+zTkWp+ZsnlLcC8l9T2UsLtmSpIF6r91IV+RtXiqWdR3Jo495smvhlBvVrGE9TNvmxrFLMQ++ZzPlvqx5LU24tRNfPP6GmWlF1sQLA72wcA55FhB9fDvlevj4ICsz5Qf59+/bldfuN5NeP6OanCPnzilar2rE0rnkh+mJPNiUtSQty0Y13w9qt2mVurW+9KJZ6fZyqiltG35CgIuIzvzUnN9J3zzSLp16fBLvp/L5Q5IcLfmk5L01oXoiQXuy2OPW0Cnr4nYjdwbpDCcZ6PVTr1ePKujc6P4a+3ZejCnZ4WgLyd6kfS2v+yKYnr02gLQdzVDBzze9ZSqEh+IjrwhL+giO+nrkugRpW8BJSqMhOAKc/jvmow/upgSlQVJFfueO5ewKqo7/w7xzy4X8vBp8SBPKzUUcMb8SIEQj4jVm0aNHj2MBz8I033jixe/fuQdF+HUwhf17RQtFNhaIeZdF5Dm4lgKUKeQKpNeM95Yt4VIyAK+tApvzasbKFPVSqsD/dZryKxnmoTZ1YWvN7Nu06mnNGiK+/o1ZpL9LM9Ms/OcrCI9gHbPRAIgJ+LWrE0qe/+xUh7tX7el68hzZ1L0LjPs8IUoAIJvIzEWfAkXjog1WtQ9QoAkRVgSDW3+T+zpmgHxhCKtoP8nORDwJ+K1aseG7RokUjFPmb39h8YrfufrcfN6HCTykX9XDM+cXtjxqBko5GFgK5HGWTkT3u0jxuP+/KjeDf008/DcuvkT93zq9v4CmWP7JkQForCEABZI+tn4f8XLwHLwDkX7ZsmZ/8zz///OBbbr5lYucunYO27g7awDOuKB2782VZ2CPyJQgUcASyc/ft52aC8NiYF5W7mPM/88wzyPMHk79T504qH8h5/oDLn7ueX8hfwEddmicIEJEZ+ZG9w3FduPKS/5ZbJnbq1ClwRLe+hx9v5iHkF9kSBAo+AmbkR93O8ePHVarPkvxY/cN5fr2bWNUn5C/4Ay8tFATMyI+FeiA/DDnIv2zZsmf/7//+72k157/11lsnduzYUc35MTfQi3zE8otACQKRg4AZ+eHJHzt2TFn+kSNHItU34t13331Okf/2226f2L5De7XdD5/Yw90V8kfOwEtLBQEz8ickJFBaWlqA/CtXrhzx9ttvnyJ/u/btVMBPyC8CJAhELgJG8iO3X6hQIXPyP/vss4Nbtmg5EeRHDbDZvv2ehPOoeJtkolJVyYetvCMXG2m5IOA6BLBKEkvwY2JiaesTwRV+ID/m/CdPnszr9oP8LVq0mNiunZ/8SAnwqj5O9xUpUpSeGPE0lSpVmtLT09V2QXIJAoJAwUGgUEIhVZl7283NA41CrQ7Ir0f7n332WVT4+ef8RvLrbj+TH18eNWoUVaxYUWkPuQQBQaDgIACexsbGKve+adOmecivB/zykL9ly5YT27Ztqyw/7+TDFX54ML6cnJxMF154oUoX8B5sBaf70hJBIHoRYE7GxMTQlVdeGQQEqvo41Yd/P/fcc7D8j7/77rtjgiw/An7s9hvJ//LLL1P16tWjF2HpuSBQwBEAZy+55JI85IdHwHN+WP6VK1c+tnDhwrEg/8A77rhjUqtWrahChQqW5H/11VepRo0aBbz70jxBILoRuPjiiy3JDw8h1+1/7J133vGTv2XLlpNat26t3H4U+RgDfnD7p02bRjVr1oxuZKX3gkABR8DIUSzsKVy4sLL8luSH5UdAj/ftRx854CfkL+AjLs0TBHIRMJIf83x2+8Hn3Aq/U5bfzO1nNDngJ5Zf5EsQKPgImFl+kB8peigCkN90zg+3/+jRo8rt15f0iuUv+IMuLRQEgIAZ+VHeC/Jrtf3Blv/+++8Xt1/kRxCIcARCuf0gP1J9q1atGrZgwYLkQLQf5D///PPVnB8BAv2C5Ue0XwJ+ES4Z0nzXI4CMnF6Ho8/5Qf7nn38ebr+f/M8//7yK9t93330q1adH+znoJ26/62VGOugSBMwsP4p8Tpw4oeb8QZYf5G/RooUiP6L9mPPjZgn4uUQapBtRhYCV5ceSXqT9gsg/evRoRf577703j+WXVF9UyY101gUImJE/Li5OLfAB+eH2L1++fNjbb7+djCO6B952222T7rnnHkV+1PYbj+s6XbcfSmTPnj1UuXJlF8ArXRAECi4CRvKD8Kj5h8uPn6A5P5P/7rvvVm5/OOT/5ptvsB8YPfLIIyHRQKBhzpw5hFOB5BIEBIGzh4CZ5UcAEBw0Jf+tt94acPvDIT+6sHTpUrU5ICoE9Ss1NZW2bNmi/gTLv3r1amre/NRa4ypVqqhy4m3bttFff/1lisb11586dLB///5qZSFnIvBsdKh+ff8hBbt27aINGzbkec6OHTvUrsRJSUlnD3F5siBQQBAIZfk51ReI9rPlv+uuu6hSpUpqJx+j24+in+nTp1um+gYOHEgvvfRSUPcRXdy8ebP6G44J/uqrrwJrjbFDMPYLxNpjuCXQSLjmzp1LN998s2oHLhQn8AXyv/jii6pUEddPP/2kvsfk11++detWNcWAopgwYQI9/PDDyvWRSxBwOwJm5Oclv0z+1atXD5s/f75/zg/Lb5zz6yCFmvMjO/Dmm2+qM/6efPJJU2w3btxIBw4coNtvv119DgsdHx+fZ+3xrFmz6LbbbjONDRjJ/8MPP6hnmZF/yJAh1LNnTzUlQf1CtWrV3D7m0j9BQCHAK285149AH7b4wsXR/pSUlMELFy6chIM6VbQf5MecH1YZx/vgchLth1WF5U9JSaEGDRpQw4YN8wzD2LFjadiwYWq3EVxQFtdee20eUoYi/4MPPkjjx48PuP2fffaZ2nC0Tp06ed4H8uOduucgsiEIRAMCRvKD8KwImPwrV64c9NZbb72kyI8iHwT89Gi/flafleWHe42gH/b/g0vxxhtvUNeuXYMw3rdvH73//vvUp0+fwN8ff/xx5SXo9QT4MBT5f//9dzUdYAWCfOWgQYMCJwrzw1HDPHz4cPrvf/8bDWMtfRQEghAwkp+n1Gz5Ee1ftWrVoDfffDMv+THn5yO6+almc35UAoJgjz76aMDCfvzxxwSFMGDAAOXWY64/e/ZsuvPOOwPzeDwTpJ00aZJyQ+Ax8P4B69atUzuR4FRRXJjfN2rUKKhziCW8/fbbKi6BPQj0C89buXIl1a1blxBQlEsQiDYEQpGfK/xSUlJOWX64/cZUnw6a0fLv3LmTPvnkE8JUwZi7hzsOd7t27drKkrdo0UK55phCgOg4OQQxAGggeAubNm2yHB8EBfX5Oqw6FA7iApdfHrxFMR6CdCKUB/Yxk30Go03spb9AIJTbr5X3nrL8RvKz5Xcy57eCHESFJWarjvtQ6ANvoGrVqkJOkVVB4CwgYEZ+8BhBP67wy+P2I9XHRT46+fFFuNiymcdZGCl5pCBwhhFwEvBbvXp18JxfJz/IHsrtP8PtlccJAoLAGULAyvIjUA5vHNPtkOQ3uv12RT5nqN3yGEFAEDhNBKzIjyI35PxNo/2hLL+Q/zRHRL4uCJwjBPTt9RH0RpCPK/w44Ld69eqB8+fPfzmQ5zfO+Y17+IUq7z1H/ZLXCAKCgA0CTsi/cuXKAQsWLJiSh/w4sQepPVx6tF/IL3InCBR8BIzkR4Sfo/28qm/VqlUD5s+f7yc/tu5GIY6+pFfIX/AHWlooCBgRMCM/7sEUQNvJx2/5sY3XXXfdNemOO+4I7N6rW35O9YnlF0ETBAo+AmbkRzEd7+aDsviA229FfuOc/7XXXpPdewv+2EsLoxwBszk/3H2k+rjIJyUl5ZTlv/POOydxwI9P6TVz+2vVqhXl0Er3BYGCjYAZ+VFVi5J7bVWfn/w4qPPuu+9Wc37s228kPx/XNWPGDLH8BXvcpXWCQNBJ2pzqQ34fbj8H/BxbfiG/SJQgEDkImFl+VPbB8luSn6P9+im97PojAKhbfizdlUsQEAT+fQSwVR22w8MSelxmAT+QH3tnwAMYNWoUAn795s+f/6qK9sPtR7SfT+zhTTZg9Tnaj4CfzPn//cGWFggCoRCwmvNDSUAJgPwpKSm9FyxYMMM01afvsIM0ARb6CPlF6ASBgo+AGflxWo9u+VetWtV73rx5fvLD8mPTDbPjujBPAPnh9ovlL/iDLy2MbgR49159x15sow/Lj2g/LH8Q+bnIB26/Xt4Lq89uv5A/uoVKeh8ZCBjJD+MN8sPyM/lXrFhxyu2H5W/ZsqWa84P8xjk/lvgK+SNj8KWV0Y0ATullqw8kQP6TJ08qTuPfsPxB5L/nnnsU+XGCDqL9fCqOHvCbOXOmuP3RLVfS+whAwIz8sPxYls/Rfkfk11N9Qv4IGHlpYtQjYEV+xO042p+H/Aj46ak+tvpAE3l+IX/Uy5UAEAEImB3UCbcfHEaZ7+jRo0+5/Sjvve+++ybhKC2QH8dv6W6/kD8CRlyaKAjkIpBv8nOqD9VC+r73YvndI1srd+XQTVX9Z7fp15KdOXT7RXn/7p6eR0dPrMiPoD3y/bmWv8eCBQteVwt77r///kk4CIMtP5+Eq+/kgwM4JM8fWQI05vMsentrNlU6z0PPNY2lOC/R3C3Z1O/yWIrxEFUt4aE/jvko1kP0yuZsalfHS2ULeyjbR1a06b4AACAASURBVOp3If/RinJFEAJmJ/bA7eeAXy75uy1YsGCOIj/cfsz5Ee2H228kP4IFMuePIAnQmtrhwwxacFc8dfs4k45n+qhN7Ri6soKX3tuWTY9cHUuvf59FV50ffHz5loM5VKeMlxqU80Rmp6O41Wbk5wo/zPnHjBlDy5cvP0V+WH7M+Y3kB4a8qk8sf+RJFCz4Xf/LoJFNY+n7gz76+NdsOp5BVLKQh+6p6aUOdWNoyuYsWr/HR78d8VHV4h7yeIiSm8dSkVgPFfOvFZErghCoXr26mrLztJ3z/BztD7L8KO+99957TcnPbr9Y/ggafa2p47/MojV/5FC8l6h8EQ9dUMxD+074qFoJD7Ws7qV6Zb204Kdsal3bS8+uy6anr42hWMwH5IpYBMzIz+W9WpFPsNvP0X4cpKmfa88Le8TyR548zP0xmz7cnk0JsR7q1SCGUjN9tP2wjxpW8FLdMh4qXchDUBBDGsXSs+uy6HC6T1n+miU9NPBKmfBH3ogTWVl+Lu/NY/lR4WdGfr3CT8gfiaJAdM28dBXce/76OOXGbznoo6aVvVS5mIcSYoiSv8qitX/m0CVlPfTMtbFi+SNzmAOtZvLjD7yTj2XAD26/Tn4E/HTLzwt7hPyRKRWvfZtNvS+LodV/5NC2f3zk9RCVTCCqU8ZDf6eS+m8Q/7kNWdSogpdKJBB5yEPXVPZQqUIyBYi0UTeSH4t5mPz4t6XlR8APbj+i/fruvZjzC/kjTQyC24vgH6gMt15ZBSJKy6JAOi/HR5SZQ4TfuOAVQDHIFVkIgPxs9fGbV/Vxqi8o2j9q1KgH77nnnpf0PL9Y/sgacGmtIMAImJEfqT4YdCgCWP7PPvusy+zZs9/wPPfccwPuu+++ySA/Kvywqk/IL8IkCEQmAkx+bj0C9lzbj1V9IP8XX3yROH369DcD5L/11lsV+eH282aAeADn+V9//XWp8ItMeZBWRxECOvk54Kdv4wXyb968OXHy5MmnyH/LLbeoffsl4BdFkiJddR0CF110UaDAB+SH5dfdfmzmEUT++++/f/LNN99MlSpVUuQ3Wn4J+LlORqRDLkXAaPnZ7ec8PwJ+mzZt8lv+kSNHDmjVqtVkdvuZ/FweKKk+l0qJdMuVCJi5/XxoBxQByP/ll18mTp061U/+1q1bi+V3pShIp6INgVDk5xN7YPmDyK/P+XGuF+cKxfJHm/hIfyMZATO3H7X9eqrv66+/zmv5jdF+uP5C/kgWBWl7tCFgRX5O3z///POnUn3PPvts/1atWr2CgB+i/Uj1seVn4CTgF20iJP2NVATMyI85P4L4MOSI9q9evTpx7ty5as7fr3Xr1lP+85//UOXKlVWRj1m0X/L8kSoO0u5oQiAU+RHwQ54/D/nZ8lul+oT80SRC0tdIRUA/qw99AOGxgw+8eVPyt2nTZspNN90UqPDj+YG+mYeQP1LFQdodTQiYkR9uP8gPPsPyp6SkJM6fP/+U2y+WP5pERPrqVgTMyI+a/tjY2NCWH7v3njhxIjDnF8vvVhGRfrkVASu3H+QHn8eMHkMrUlacsvzs9nO036q89+KLL3YrZtIvQcAVCBjJj8IetvzoYO56/mDyN2/ePFDbry/pxRdwaAc28xDyu0I+pBMuRsCM/Aj0cc3OuLHjaPmK5Z3mzZs3X6X6YPlBfrb8EvBzsXRI11yNgNm+/di+y+v1EvmIxowdQ2+99dZXderUGet5+umn+7Rr126aGfkZJVh+ifa7Wmakcy5BwIz8eqpv3LhxNH36dGrdujUJ+V0y6NINQQAImJEfc/6YmBjl+oP8U6dOpbZt2xKO6+rTpk2baTfccENgzq8f18W1/bD8MucXARMECjYCNWvWDGogB/zg9jP5X331VerTp4+Qv2APpbROEAgPASfkh+Xv16+fn/ytW7dWlh+1/cZtvDjaL5Y/vEGQuwWBfwMBM/LD+uNiyz9lyhR64IEHTs352e3Hwh5s+YNLL/KRVN+/MZTyTkEgPATMyI9oPx/eiTk/yD9w4MC85OcjujkvKJY/PPDlbkHg30QgLPJzwO/666/P4/Yby3sl4PdvDqu8WxCwR8Cp2z9o0CC/5W/fvv00Jj/cfj3aj9dhMw+Z89sDL3cIAv82AmGRf+TIkT3btm07w0h+tvpC/n97OOX9goBzBIzkR2kv5vzGgJ+y/Dr5ed9+sfzOwZY7BYGChIBOfj6xx0j+V155hYLIf91111mm+sTtL0jDK20RBKwRMCM/Un3w5DnVB/KraD8sf5s2bWYw+bGBp9lBnbNnz5YKP5E6QaCAI8Dk50N3YPXh+vM0fvz48TR58mQaPHjwKfI3a9aMLrjgArV7r7G8t3jx4hLwK+CDLs0TBICAkfyw+mz58fmE8RNo0kuTaOjQoXktP+f5dSjF7RfBEgQiAwEz8sPyQwHAG7AkPwJ+uuXn7mJJr7j9kTH40sroRsCM/EAEK/tAflO3n+f8yPMXLlw4CEEhf3QLlPQ+chBwQv5AtH/EiBE9O3TooPL8OK4Lbr+R/EWLFqU5c+ZIwC9yZEBaGqUIWJGf032w/Hq0v3vr1q1nYWEPb+PFAT/ghyghLL+QP0qlSbodUQjUqlUrqL28oo+Dfuz2DxkyRAX8FPnh9vOcX7f8Qv6IGntpbJQjYEV+BP3wY5zzd2/btu2spk2bBop8jG6/RPujXKKk+xGDANx+zvGj0bD4vIFnSPIjz3/48GHT9fwS7Y+Y8ZeGRjECZuSH944fS/KjyAduv76ZB27GBcsvc/4olijpesQgYEV+9gJCuv06+fEFKAAhf8SMvTQ0yhEwIz9cf2zgid8g/8svv0yBgJ8+5xfyR7n0SPcjGgGzgB/X9YdFfp4rINU3d+5cyfNHtFhI46MBAaPl15fz4t9Bln/EiBFd27VrN5sX9vBOPnATZM4fDeIifXQTAlZzfmQAmPyTJk3yu/0gf/v27Wcj1cfRfqT69A08Zc7vJvGQvrgZATPysxHHb969V23mYSQ/z/nZ5QdQ4va7WVykb25CwIz8HLgHp0F+nNijDu0ws/yo5Wfy4zfW80uqz00iIn1xKwJWlp+39MKcf9q0adSjRw8/+THnh9tfpUoVVeSjk18sv1vFRPrlRgTs5vxjx45Vlr9Pnz6+IPJjzm+1pFei/W4UFemT2xCwIj9O6cVR3SD/J5988vNNN900SJG/bdu2s7GwB+Q/dOhQnvJezPnfeOMNSfW5TVKkP65DwIr8sbGxlJ6ersi/cuXKxLlz575p6vZjSa/xuC4hv+vkRDrkQgSsKvzi4+MpLS1NkX/VqlV+8j/11FNdOnToMOfaa6+1TPWJ5XehlEiXXImAVcBPt/wB8j/xxBOdO3bsOBfkR8BPP66L0RHyu1JOpFMuRMDK8sfFxSm3H9H+lJSUgNvfuV27dor8F154oZrzm+3hJ26/CyVFuuQ6BHTyo0oXVX34AfkR8EOeP0B+tvyc6jOSn/P8Eu13nZxIh1yIgBn5saAH5MecH+QPBPx08uvlvTouKO8V8rtQUqRLrkPAKtoP8qempgYH/PQ5P8jPh3bw2V74DfKL2+86OZEOuRABq1V9CPipaP+YsbRqdW603xjww6EdSAvgYgUglt+FUiJdciUCZmf1gcfs9ockP8p7OeAn5HelfEinXIyAGfnR3YDl1/P8sPwdOnQIRPuNqT5x+10sKdI11yEQFvkff/zxTh07dnwDqb6qVauqVB9X+DEy4va7TkakQy5FgMmP7vEGHviN2v48FX6PPvpoYmJi4jyk+kB+dvt53y88RMjvUkmRbrkOATPyI98PBZAnzw/yd+rUaR4X+ZhV+An5XScj0iGXImBFfiiAPAt72PKz2y/kd6lUSLeiAgErt5/JH1TkY0V+jvSL2x8VMiOddAkCVqf08pzfkvyo7TcW+Qj5XSIV0o2oQMDM8oP4mPPnKe/VLT/Izzv5iOWPClmRTroMAbNUH8iPKyM9g8aN1xb26NF+XtKLIp/8kD9n05fkO3jwnMDpubAqeetcck7eJS8RBCIFgZDkz93G67PPPkucOXPmmx6Qv2PHjvNwaIdOfr2zjtbz+3yU+dRD5Nv45TnByXt3K4rtN+ScvEteIghECgJmc34E+2DMkerDev758+dva9CgQX/P448/3r59+/YLOM9vtoefo4U9Qv5IkQ9pp4sRsLL8WNaLHz60o1OnTj96hg8f3j4xMVGRv1q1avT3338HNvBkjIT8LpYW6ZqrEDAjPx+9h009JkyYQC+++CJ169btFPnh9iPg988//wj5XSUO0ploQsDO8vNBnd27dw+2/Fzbb9zGSyx/NImP9DWSETBL9WE5L2/nBbd/8uTJlIf8sPyo7S9SpEjghF4AgeO6bDfzkDl/JMuMtN0lCBjJn5mZSQkJCYTffEovyB/k9nN5L8iPVX16qk/I7xLJkG64HoFQ5IcCgNsP8vfo0ePnQMAP5EfAj5f06igJ+V0vM9JBlyCgkx9dQoQfO3Ox5Yfb/8orr8Dtd0Z+5PnnzZtHtWvXtoZI3H6XiI90I5IRMJIfrj6Tn1N9r0x+hbp27fqz5+GHH27XuXPnt2D5L7roIpXqM9u3X8gfySIhbS8oCGzel0NVS3iodCHPWWmSGfn1OT9bfkX+4cOHt01MTFzIbj9SfUz+nJwctSAAln/+/PmusfyIZ2zcuJEuvfRSFQyRSxA4FwhsP5RDbT/IpFkt4uny8ueO/IjhoboPXgDIP3XqVOrcufPPnmHDhrXt0qXLwmuuuSZg+RHt5wtEcRv5f/rpJ9qwYYNa5dS/f/9zMe7yjihH4MeDOdTl40z6701x1KwydtY5O4CYWX6QHxt5sNufS/5fAuRv0qQJVa9ePU/Az43kX7p0KdWoUYNmz55NzzzzjNrZVC5B4EwgkJVDFOsNftIPB3Ko68eZNOWWOGpcyfDhmXip9gyn5O/SpYs5+Y2usNss/+DBg1XKY9GiRXTTTTdR2bJlz/AQyOOiEYHth3300KpMmt0ijkrlzul3Hs6h1h/4iX91xbNn8Rlvuzk/5H7KlClw+6OP/N988406suj8889Xc6DLLruMevXqFY2yKn0+CwgMWZlJxzKIkpvH0o7DPuq5JJNe+k8cXXfB2bX4ZuRHvA4pPmO0/9VXX81LfmgNRPvdbPl79uypihx4z4LrrruO1q5dexbEQB4ZrQg8vTaLVuzKoROZPuUFXFb+7Ft8K/LDwIHPesBv2rRplMftNyM/5vxFixalBQsWuCbaH61CKf0+dwiMXJ9F11X20E1V/bvonKvLrLYflh9KIDMjU+3kg4Bft27ddqhUX6dOnRZeffXVxORHdJAvIf+5GjZ5j9sQ8OHgjHPcKasKP0X+3PJezPkV+QcPHty6R48e7zRu3FhFwJHn59p+brdY/nM8gvI6QSCfCISy/LyTD9z+zp077/AMHTq0VdeuXd9Fqg/kR20/n9Krk//NN9+kOnXqWDdJynvzOVzyNUHgzCFgRn5OZSPXjyKf6dOng/y/5SE/LD8CBIgU8pFdsPxC/jM3QPIkQeBsIWDl9qNaV5F/7DiaMXMGderU6RT54fbji0x+szm/WP6zNWTyXEHgzCBgtbAH5Ge3/7XXXstL/osvvpgOHjwYlOrjCj+x/GdmcOQpgsDZRMCK/OAxLD+KfPK4/Rzww5xfz/ML+c/mUMmzBYEzi4BVhR+7/SD/jBkzKDEx8fegOT++CMuv7+SDL6G8F3l+cfvP7EDJ0wSBM42AGfmxhx8uDvjNnDkTbv8p8iPPX6tWLVXhJ+Q/00MizxMEzg0CZuTnaD/m/Ij25yE/3H59VR/v4SeW/9wMmrxFEDgTCJjt4YfUPZbzosiHyZ+YmPinZ8iQIfd17dr1PY7263l+pPsck/9MtFyeIQgIAqeFgBn5YflhzFWF37jxNHPWTOrYseNuz8CBA+/r0aPHe1zkg9172U3gkz4czflPq8nyZUFAEDgTCJiRH3N+GHEmP/L8iYmJuwOWH+THF2H5mfxc6INDO2xTfWei5fIMQUAQOC0E7Cw/jutCnr9z5857AuTHNl5c3mvc2UbIf1rjIV8WBM4ZAmYBv5gY/8pCXtiDgF9iYuJfAbcf5Ee0HxV+fDO3WNz+czZ28iJB4LQQMCvv5Tk/ov0Txk+g12aoCr+85Eeqz2j5Udv/1ltvhc7zn1aT5cuCgCBwJhAwW9gDY84Bvzzk79Wrlwr48Xp+I/nF8p+JYZFnCAJnHwErtx/xO93yd+7ceZ9y+3v27KnIz7X9Qv6zP0jyBkHgbCBgRn5k7fCjyD9hgirv7dSp036Q/56ePXsuEvKfjaGQZwoC5xYBW8uvk3/AgAH39OnTR5EfZ/EdOHAgz5zfkdsvm3mc21GWtwkCJghYBfw4z8+pvi5duhzw6ORHtB8Le3ghQFjRfiG/CKMg8K8jYEZ+zPcR9MPCHg74de3a9e8g8mPOD8sv5P/Xx1AaIAjkCwGzaD8eBPLrAb8A+Xv37r0IeX6zgB9SBCjykSW9+RoL+ZIgcE4RsLL8fIAHB/xMyS+W/5yOlbxMEDijCNiRH5t5oLy3e/fuh5TbD8vPAT8U+eSrwk/m/Gd0EOVhgkB+EECJPqw8LvzGfv36v3knny5dugSTH26/WYWfRPvzMwzyHUHg3CNgNudnZQBFYEl+pPoQ7c9XkY9Y/nM/0vJGQcCAgJnbj7gdOK0v6e3atesRT//+/e/q06fPB9jGq27dusryi9svMiUIRCYCZpYfOX5wGpYfqT6s5+/atetRT1JS0p1JSUkfXnXVVVSvXr085Ofde20X9ojlj0xpkVafUwTSs4livUQxZ+kQPyvLz+THNl4o7+3evfsp8sPyg/xw+3XLL+Q/p7IhL3M5Ap0XZ9KgK2OoUUXvWempFflR2w/Lz3v4devW7XjA8oP82Jrb7QG/7du30wMPPEDIbqxZs4beeecdKlu27FkZCHmoIMAIpGYRtX0/g+qW8dCo6+Mo7uxwX63M1S9s3IkfzPktyQ+3v379+rR//35XB/xAfpxYgqjn+++/T02bNhXyC0fPOgJt38+kBuU9NLRRLBXxb6N/Vi67Ob+p5Y8m8vfo0UMFN8uVK0dPPfVU0AlFZ2VE5KFRgQCs+3cHcqhRBS/F5Fp2/K3rx5l0QTGi0dfFUaHYswuFGflh8VGyz5Yfc/4ePXqcyBPwM0v1OdrDL0ICfrrlX7JkiZrmJCYmnt0RkadHBQInM310xZwMerxJLHWt7983787/ZVCTSl4adlXsWSc+3mcs8oHLD9Lrbj8q/Hr37p2qyN+vX78PGzVqFEj1uTnPD/KPHDmSunTpQl999RXdd999qt9yCQJnAoGMbB/d9V4mdbkkhpbszKHyRYieaxZ3Vl19vd1OyA/L36tXLz/59VSf24t8UOiAuAZXPVWsWFHtciKXIHCmEDiY6qOm8zOoY70YerxxLMX5nYBzcpmRH9YfGTzevTdA/l69erV84IEHFnOeXxb2nJMxkpe4HIH0bB9l5Xio6FkM7plBaFbbD7cfR3ZhSS+X9/bq1Svd06tbr5YPDPaTnyv8dLdf8vwul1LpnqsQMAv4weLj8F19M4/evXune9jyc3mv0e0X8rtKNqQzLkfAjvyw/Di0w2/5e/Vq+eCDDwYsvxn5ZTMPl0uMdM81CBjJj/k+3H24/fqJPX369MnydOvWreXgwYMXR0uFn2tGWToiCJggYFbhhzl/QkKCcvtR5PP6668j1ecn/6BBgxT5MeeH5YeWgLvPl6znFzkTBCIDATPyw+KD/Pg9duxY5fb37dvXT/6BAwcuRq07avuNu/fKHn6RMejSSkEACFhZfo72a5Y/29O5c2dl+bGBp05+zoPjgWL5RbAEgchAQE/1ocWY88PiFy5cWLn9sPxw+/v27evzdOjQ4fYhQ4Z80qxZM0V+zvML+SNjsKWVgoCOgFPy9+nTxwfLf9ugQYOWwPJjGy/UumMRgJBfhEoQiDwEzMiPaH+RIkX8Ab+x42j2nNmkyN+9e/fbBgwYoMiPE3v++eefPKvcHLn9ROTb+xdR6slzg1jxEuQpI+vwzw3Y8pZIQQDkx8XGG24/SA/yQwnA7Z89ezZW9ZEi/4MPPrikcePG6tAOWH5EBvlyHPCLFHSknYKAixFg8rMCMJJ/zJgxivx9+vQ5oNz+oUOHLkGqz4r8sPy2e/i5GFDpmiAQKQiYkT81NVWdugUPAOT/6KOP+t19993vKMs/cOBAS/I7jvZHCjrSTkHAxQgY5/zYuRfkhwFX5B89hlatXpU4d+7cN4Pcfsz5Dx06pIp89MvpnN/FmErXBIGIQMCK/LD8UAKw/KtXr/aTH27/kCFD1Jwf5D98+HDQKb2Y8xctWpQWLlyoUoFyCQKCQMFFwM7yjx49Opj8mPNjSS/m/EeOHAnawFPIX3AHWlomCBgRCIv8HTp0uOWRRx5ZBvIjzw+3H3l+PdovAT8RMkEgMhAwI39aWpqa8+N3kOUH+YcPH74Me/gx+bGZB+cJHa/njwxspJWCgKsRMCP/8ePHqUSJEor8yPOvWbOmw+zZs99Cea+y/MbNPPQKPxQIyJzf1TIjnXMJAtWrV1d7UsJog8PI8584cYJKliypAn4g/2effdZu1qxZbyvyP/zww4r8fFYfu/14gMz5XSIV0o2oQMCswg/kL1WqlFICIP/KlSvbzZs3L5j8WM+P8l4j+WXOHxVyI510AQJW5C9TpgzB/Qf5V69e3W7OnDl+8nPA75JLLlHr+XnOz5ZfyO8CqZAuRAUCZuSHuw/Lb0p+DviB/LD8ID8TXwJ+USEz0kmXIGBW3nvs2DF1HiXcfmzm8emnn+ad8+OgTlh+BAz0aL+jDTxdAp50QxCIZATMLD8sPsiP31jS++lnGvmHDRumAn6XXnqpIj9O9wD52foL+SNZHKTt0YSAGflh+cuXL09Hjx5V5b2w/IE5vxn5OV0A4Li2H3UAcgkCgkDBRcDM7QfpQX5YfpB/7dq1p9x+K8vP1l/IX3AHW1omCOgIWM35cRy9JfmxsAcBP2zmAbdfP7wS5H/zzTdVBaBcgoAgUHARsHL7ec6PVF8eyw/yI+DH5Ncr/DDnnz9/vpC/4I65tEwQUAhwea9e4Yc5P/L8XOSzZs2a4Dk/k58Dfmz58ZDixYsL+UW4BIEIQMDK8sPthxKA5f/0009bzZ49+z1V5PPQQw8tw6EdnOcH8fGDXUDwWyx/BIy6NFEQyLX8AELfwBMBP5Aflh8Bv/Xr17eaMWPGe542bdrc8uijj6pUH9x+FPlgzo+Lj+ziVJ/M+UW+BIGCjYCZ5Qf5K1SooCx/EPnZ8rPbj/X8+nwfXRXyF+wBl9YJAoyAMdoP7x0b9DD5sZ5/w4YNfssP8iPVx9F+nfwcNBDyi3AJApGBQKhUH8/5g9x+1Paz5Yfbrwf74AUI+SNj4KWVgoAV+VHkw+Rft27dqTm/Tn5x+0WABIHIRQCbeXDAjzfz0AN+iPYHyG8V7de7L5Y/coVBWh5dCJiRH3N+Lu/Fqr48lp9TfbD8el2/BPyiS3ikt5GNAMjPAXu2/Lykl9fz55nzg/zYxgtaQr/4rD4c1yWpvsgWDGm9+xEwIz+7/bbkx42c3wdUQn73C4z00D0IWFl+uP0w7HD7Q1p+TvHpRT5i+d0jINIT9yKgkx+9xO69cPuR5wf5kef/4osv7p0xY8b7qsIP0X64/djAEzeiMMAY8BPyu1dgpGfuQUAP+KFX4DJv5gHyjxo1ijZu3Hj3tGnTPsxDfqPbzwE/Ib97BER64l4ErMgPy49zOIX87h176VmUI3DRRRepaD9H/NnyM/lR2//VV1+dsvzYuvuaa65Rbr9Y/iiXHul+RCNgZ/mF/BE9vNJ4QcAaASY/7oD1h+WHQT///PPVil2Q/+uvv847569Tp44KDuipPpnzi6gJApGDQCjyY84P8iPgN2XKlLwBP2ORj5A/cgZeWioImJEfnK5UqVIg1ffll1+esvw4qPPaa69Vc34r8i9YsIDgGcglCAgCBReBUOSH5UeeP0/ATy/v5SIf7iIW9kiqr+AOuLRMEGAErMhfuXJlwrodS/Lr0X7j7r1CfhEwQaDgI8CpPj3gx24/yI8lvXncfk71cYWfkL/gD7S0UBAwIhAq4MfkX79+/d0zZ848FfDDTj76nF/IL4IlCEQeAmaWn1N9yu0fNZo2bf625dSpkz9R5b0o8uHafg74Cfkjb+ClxYJAqIAf8vyY82/e/FXLqVNf85Mf0X7ezANaAoUBfE4f7+Enc34RLEGg4CNgN+dHbf/mzZtbTp061Z786C5O7BHyF/yBlxYKArD8nK1jA44UH6L9OIoPRT7ffvtty8mTNbcfc37s5APLz5dxPb/k+UW4BIGCjYDR7QeHOdqPo/gmTJiAPH9ey69v48VaA13lPL+Qv2APvLROELAif8WKFVVtP8i/adOmU5af5/y8mYdVbb+QX4RLECjYCNha/vETaNNmC/LDReDde9n6i+Uv2AMurRMEGIFQ5IflR5HP119/be72Izigb/3LR3RLbb8ImCBQ8BEIVd4bkvxw67G9r9HtR7RfyF/wB15aKAjY5fnHjx+fd86P8l59Pb+e5z/vvPNUqk/m/CJcgkDBRsBsJx9O9cHyjx83Pu+cH0t6a9WqRSdOnAjkCSXVV7AHWlonCBgRsCry4Tw/9u3fvHnz7ZMnT14aqPBjy6/n+fnBEvATIRMEIgMBK8t/wQUXqCIfkH/Tpk23vvLKK8uDyI/juLCqz3gJ+SNj4KWVgoAV+atUqUIo8oHbv3HTxmDyw+0H+cXyiwAJApGLgPHEHqzTwZzf1vIbl/TKnD9yhUBaHp0I1KhRI6jj4DCW8oYkPyw/ovko8tFLe/EkcfujU5Ck15GHAFt+XtwDyw9Og/xw+03n/Oz2M/l1BSCr+iJPCKTF0YmAldvPc35L8mNhD3KB+nE/zTHgPAAAIABJREFUXOEnS3qjU5ik15GFQL7Iz3v4ITiAC/X9uIT8kTX40troRsA45+eAH1t+1PZv3rw5b6oPlh/BAd3y63N+ZAPkEgQEgYKLgJnl1+f8puTnQztAft3yM/mltr/gDri0TBBgBMzID05feOGFKuBnS362/JLqE6ESBCILASvyw+1HhV/Y5Jdof2QJgLQ2ehEwS/UhiF+1alU6cOAAYVXfjz/+eNOLL764KlDeC7ffGO1nyy/kj15hkp5HFgLG8l69yIf38Pvhhx/85G/Xrt2tDz300NJQ5Jcin8gSAGlt9CJgtpMPz/lh+ZHnD1j+jh073jZo0KAlTZs2DVh+Pc2nR/tlPX/0CpX0PDIQsNrMQ6/wCyL/4MGDlyDPf8kllwQV+UjALzIGXFopCDACWM/Pxht/08t788z52fLD7RfyixAJApGNAG/mwftwgvz6wp6ggB/IL5Y/sgdcWi8I6Hl+/FsnP6p2kerjOf+WLVv8Ab9Qlh8Pkd17RbAEgchBIFRtP8iPPP9PP/3knPwS7Y+cwZeWRjcCYZG/c+fOLR944IHFPOdHFRACBuw2wPIL+aNboKT3kYNAqPLePJYf5H/wwQcXc7RfyB85Ay0tFQSMCJiRX6/wg9v//fff3/TSSy+t8ujkN1vVJ5ZfBEwQiBwE7Cx/bpHPjRMnTlwTkvyS54+cQZeWCgJAwEj+7OxstY0XVvWx279t27brxo0bt1bILzIjCLgIAauAnyPyY37AAT+x/C6SCulKVCBgJD8v7MGqvn379qlU3/bt2/2Wv1OnTncMHDjwIwT8MOdHwC8mJkYBJUd0R4W8SCddhIDVNl6m5O/SpcudDzzwwIdMfrb8Qn4XSYR0JWoQMKvtR3kvyL9///5gy28kP26E268f0y15/qiRHelohCNgdlwXOA2lsHfvXrWkNxDw6969+539+vX7UN/Djwt8GAchf4RLhDQ/ahCA268bbnQc5K9WrZo5+ZOSkj7U1/ML+aNGVqSjLkNAX8/PSgBT+Zo1a9KePXuCLb/u9tevX1+t5zdeso2XyyREuuNaBPQ9/LiT4DT+/tdff+Ul/4ABA5TbH4r8snW3a+VFOuYiBKwq/Jj8WM//yy+/+FN93bp1u6t///4fNGnSRJGf9+3X8ZA5v4ukQ7riagTMAn5Yz4+AXx7L371793uSkpIWcaoPpYDi9rtaPqRzLkZAn/NzN/VoP4p8tmzZcs2LL774uUcnv1h+F0uFdC0qEDCSH0E/WH59zr9169Zrxo8fH0z+Bg0aqCN9JNofFXIinXQhAmbkh+VHCpDdfkvyY+WP1UGdsnW3C6VFuuQqBMzcfo72c5FPgPxdunS5p3///osQ7WfLDzS4rh+/JdXnKvmQzrgYAZAfrr6+Excsvx7tDyJ/v379FqHIB+TXLT8/RMjvYmmRrrkKAUT1wVv94B0mP4p8clN9/jl/ly5d7ktKSnqvWbNmAcsvp/S6Sh6kM1GEAO/bz13mJb2c6jMl/3XXXUeXXXaZWvkjAb8okhbpqqsQsCI/An5c3rtz585rRo0aFWz5L7/8cuX2Gy8p8nGVfEhnXIwAFvCw547ffGKPnuoT8rtYAKRr0YuAVapPX9Ibkvx6tBAwiuWPXmGSnkcWAqHy/LZuP+b8nOrjbgv5I0sApLXRi4DZnJ8r/Hbv3q2i/bt27Wry3HPPfREU7UfADxV+YvmjV3ik55GNgBX58XdO9e3cufOqUaNGfe3p2rVrq759+76LaD/y/NjA07gTiFj+yBYIaX30IMBuPxtwvbYflh/beP3222/m5Ifll2h/9AiL9NRdCFgt7GHLH0T+Tp06terfv3/A8gv53SUM0pvoQgCpPt6Al0v0eT0/B/wClh/kT0pKevf666+nSy+9VG3jJXP+6BIY6a17EICF54vJjz06oBRMyQ/Lj9p+BPww58elzxm4tl9W9blHSKQn7kSAyW9c2KPv5BNk+fv166fcfpBfr/BjzSHkd6egSK/ch4AZ+eH2w/Lzev4A+RMTE1v369fvHZAf5b2S6nOfQEiPogcBK/KbBvy6du3atnfv3guZ/JLqix5BkZ66DwGd/Jyy1zfwxB5+utvfNikpScjvPjmQHkUhAkbLj4U9HPDjnXwCRT4dOnRoO2DAAEvyQ3vInD8KpUi6HJEImJFft/wo7/3jjz+uGjly5NcekL9///4Lkeq74oorggJ+HPGXCr+IlANpdBQiYJbq00/sya3tb/jcc89tDkl+xk7IH4VSJF2OSATMyK9H+ydMmIA5/yny9+vXb+ENN9ygLD9H+/WeC/kjUg6k0VGIAFJ6fKHSD3N+dvt5zr9r1y4/+RMTE9v17dv3LZAfqT6J9kehxEiXXYOAGfk54Ic8f5Db37lz5/Z9+vRZAPJzhZ+s6nONLEhHogwBJr++Dyd2773wwgvV/pyW5NeLfHTMZOvuKJMg6W7EIqDP+bkTIH+VKlVUMN+S/DznxzxB5vwRO/7S8ChGgPftN7P8ID+W9Abm/Lrbf+WVVyrXIDs7O2j7bgn4RbE0SdcjCgEzy49UH6YD7PYHov0gf+/evRfceOON1KhRI0JEEJZf1xxC/ogaf2lsFCNgtpkHyA+lsG/fPuX27969u+GIESM2e3TyN2zYUGkHCfhFsfRI1yMaAT6rD53gVbl8XBen+gLkT0xM7Ni3b9/5sPxw+3GD8RLLH9HyII2PIgTMDuqE5a9Zs2ZgA88A+Tt27JjYr1+/eSA/LL+QP4okRbrqOgTMdu81kv/333+/YuTIkd94OnXqlNi3b19Fflh+FALou/jAdRDL7zoZkQ65FAEj+dFNVO3WqlVLt/wNRowY8b0Hlj8pKWle8+bNTcmPL8uqPpdKinTLdQjo5Oc5P6p2DW5/XvKjyIcDfhLtd51cSIeiAAGrhT2IBfChHbt3785LfhT5IB0gu/dGgZRIF12JQKhtvLi2/8CBAw0effTRYLcflh/k13f+FLfflTIinXIpAuz263E7LOxhy48KvwD5ExMTOyUlJb2BgJ+Q36USId2KGgSstu7GnJ8P6gy4/e3bt+/cv3//uQj48ZyfAwVc7FOiRAlasGAByb79USND0tEIRcA450c3EPBDtD8k+Y0HdTL5JdofoZIgzY46BMzIj1TfxRdfHCB/wO3XLT+TH4jpK/uE/FEnQ9LhCEXALNqP8l7d7Q8i/4ABA+Zizo+z+uS4rggddWm2IECkFvDwpR/Uqaf6bMnPD4Drjwq/hQsXypxfxEsQKOAIWKX6LMmPgJ++hx/6p6/sk/LeAj7i0jxBIBcBs1Sfcd/+ffv2XfL4449vwdbdXfv16zeb9/DDIgAhv8iSIBCZCBgtv1m0/+DBg/WGDx/+E3bv7ZqUlDSb5/yIDGLLX7H8kTn40uroRsDJwp485IflR7RfyB/dwiO9j2wEzNx+zvNr5b15LT/Ij03+9EU9gELm/JEtENL66EHAuJMPeq7n+XFiz4EDB3LJ3yGxa1J/v9uPffuxqk/IHz3CIj11FwLGnXxCkp8Dfkx+aAmQX9/EUyy/uwREeuNeBIwbeDL5eTOPIMvfoUOH7v369ZtlJD8CfnJKr3uFRHrmTgSsdu9FhR/m/CD//v37/W6/Tn4J+LlTIKRX0YOAWbQfAb8aNWoEyH/kyJF6Q4YMCSY/5vzs9kuqL3oERnrqHgR0y2/cuhs7+cDy5yE/Un3YwJM38xDyu0cgpCfRg4DZHn4o3GPLj0M7TC0/b+MVExMTtKpPAn7RIzzS08hGwMzyw+3H3/nEniDy9+/ffxYsP5NfKvwiWwCk9dGLAJNf34rPSP5Dhw7Vfuihh35RAT+d/Mjzg/z6en6x/NErTNLzyELAivyYDvBBnQHyd+zYsWdSUtIMtvyo8BPyR9aAS2sFAUYgFPnh9iPgFyB/5/9v70qAq6rS9H0QEnZQEFBWC7tARSqOuECBA4kgiDpDUagkgQACWSAhaVncWGLTiDXYTk/ZzMShygVcmHJBBp2ydQYGrXYmSuNUuWHZaA8djKMioCEaQjL1Xfgff/6cc8+5974X8shNFeTl3bP85z//929nuXPm3L1o0SIX/HhdF23vJcuPxF90k08kXBEHUoMDqpif3tKLV/E1Az+3/PSWXloioOFGbn9qTHxEZcQBXcKPv7Hn6NGjp2N+gL+oqCju9tPefr7UR5Z/xIgREXcjDkQcaMMcULn9sPz4nk71xcEPt3/x4sVx8CMuiLL9bXh2I9IiDnhwQAd+vs7fLOYvKCjYcuONN8Zf2oF1/miTTyRjEQdSjwOqgz30ok7E/HhjTzPww/LjYA/29sPt5+CPEn6pJwARxe2XA9zykwGnvf0E/rq6uhFLly51Y/7FRUVFlXSqDwUAfv4TJfzarzBFI08tDsC9ly/axXkdfE/g5wm/OPhh+RHzp6WlRW5/as15RG3EAZcDXgk/reXPyspy3X6y/FHMH0lTxIHU44AN+Gtray8rLS39k+v2FxcXVwL8o0aNcsHfqVOnaHtv6s17RHHEgbjlh/GmVTsZ87cAf3Z2tgv+aKkvkqCIA6nLAVh+2qRHv43gv+mmm5wrrrjCzfZH6/ypO/kR5e2bAzq3Hwd7YNg3btzonDhx4rTbn5eXV1BYWPhPU6ZMcbCDD3v7kfA7depUnIvY4ff8889H7+pr33IVjT4FOOAV8wP8GzZscOrq6uIxf1FRUdHmadOmue/wpmw/wE9ngqOlvhSY9YjEiANn3tIL3PLz/LS9F9hev3698/PPP8ctf1FBQcHm6dOnu5Yf93zB8ken+iJZijiQehyga7z44Ty6xgvJ/IqKCqehoeGs5S8uLo6Dv7q6Og7+6Oru1Jv8iOL2zQGvO/wA/jVr1mAPz1nLX1hY2MzyR3f4tW8BikafuhzQnefH9wD/2rVrW4L/tttui28BjLL9qTv5EeXtmwNe4EfMD/A3NjaetfxI+N16660OvdJHZvujhF/7Fqho9KnDAdrbD4op7ucJv2bgz8nJKVqyZIkLfmT7ceAflr+hoSGeMezatavz6KOPxncPpQ4rIkojDrQvDmDJnoCP38jbEfixh2fdunX4enhxcfHBWG5u7pLi4uLHke3n4Oe392LZD+v/J0+ebF+cjEYbcSDFODBo0CAj+NPT04ctXLjwz3Hw33LLLfGlPuzth+Wnnwj8KSYBEbntlgM68OMOP8T8yPZnZGQ0B//UqVPdHXx0qo/v8IMXAJchsvztVqaigacIB3TgRy6AEn4twI9Y4fLLL4+f6ossf4rMdkRmxAHGAS+3H6H76tWrnc6dO5+2/HPmzFlSWFj4OMAPyw8Lj2x/BP5IpiIOpB4HBg8e3IxoSviR5Yfb3wL8kydPdk/10d5+Dv7I7U+eEAwZMsSZMGFC8jpogy0fOnTI2bt3bxukLPVJ8gX+uXPnlhQWFv4DjvTC8sM1wA4/WuqD5gD4o2x/cgTj888/d3r16pWcxttoq++++65z++23t1HqUpss6fZjNHydX1r+0qKiot/iJp8rr7yy2ak+YkNk+ZMnENiLnZeXl7wO2mDLb7zxhlNVVdUGKUt9kgB+OtGH0cB409XdCOllzN8C/LD8MtsfWf7UF4xoBOc/B1Tgp1N9LcCfk5NTWlpa+lu8qBOWn+7t50d6I7f//BeaaITnBwdU2X6t5c/Nzb2npKRkE8BPd/jxU31RzH9+CEU0ivbBAa91/haWPzc3d01JSUkFwH/VVVe5e/uxw4+7/Uj+4eL/aJNP+xCgaJSpywEvy4+VPMT83bp1G7JgwYJDWOd/pKSkZCWWm8jy06k+urs/cvtTVxgiytsXBwj8GDUl/mC4aXvvgw8+6HTp0mXwokWL/oILPH9XUlJSjBd1IuZHQcoSEvjxu76+Pu4NUKP88E8YFvMXhIRp53yrK7O252p8nA6iIZlzpuqPjx2nThMle9Quv/YqDJ9lO0HapfHze/gknfyePj4nXbp0iZMvwY+t+wB/165dT4M/JyfnybKysnnjx4+Pg5+YyydYNdmJEAD5XjG/jFcJAX9hgd/22lJ5zINUxOeCPnm5C9HklxZqxyQ3KsHmfYWVGb90J6O8CtjcWpv6NClIaouW+rDDD4b93nvvhdt/Gvy5ubnbly1bdgeBn1/djYr0jxPLP6smQqXtwk4YQE5g0DHGjzUIS49pchL1PKjl4MLB+cJf6KACMecxzT1954e/0lJzfqMdArikzUaobWQhUfwP044OG7JNqQy9eEBtynnk1l/Wp5d2ANv33XdfM/DvKC8v/5tx48a5MT8t9VHCz8v66wBkElg/wJNlveoGFc4wE9zW6nKXUcUPLjQchNytlEpBKnvbMXPPRbZPf6vATzKnE3Db/v2U8yOTftoN4rHYKEBJA8ecF/hh+bt37x63/P9WUlIyFQk/ivlVbr8chA0DyP3mWsmmXpAyJERhrVSQvqM6LTmg8tJMypmDnRSAztvzYxRUVlF6D0HAr6sTpC2uHKUsqzwFDnCuLFFWB34YdoC/R48ep8E/Z86c3cXFxRMnTpzoHumFa8BjPO72m2I1HQhUhCYaMGHBb/JWEk3v+d4e90BIbnTyI0MN7nlI70EVftry0gRK03Pej1958dO2zkuyHacK/LjYE+7/ypUrm4H/7cWLF4/HqT462COX+migXuDXJTBsCTaV45qaFBLqSEvvx/JzS4PPJstkojGRz4MISyL7T3RbXhl6iv/Rpy5UUVk0E41+rXtbyCVI4Kowp1KAKrefvqODPTDsq1atcvr16zc4Ly/vL7G5c+f+4e677x5L5/mREZRZWd4w9wRMzNc9l24KL0dCz4Vf9imBSoLlZUEkLclWVkF5Y1OvLSgGv5bPZly6MlIeVd6AiifcSKisNpcXUjpcEYWhWSXTNu3p5FKGRF55AfkM4B82bJib7YflHzBgQBz87y1YsGDMzTff7Fp+FKA7/Li7liyw+BVk0s7cQkjw6yadu1M0ntay9n7HaSMofsu0BRr80swtvioP4GWtvcAvwcQNEj6bVpb8jEOVy9DVV+FMKlod8HUh0ffff+8MHTrUdftXrFjRDPzv5+fnX4MXdeIyD7gG6enp7lZelcsRNO6XgzUJok6Tox3dM56r8AK3dDODWLEgdfwITGuW9XItW5MOlXVW9S/nmdPPgeFlBHRAkTQEHb+XdxukTS96TcoB4MclH/i9fPlyuP2D8vPzq2P5+fnv5eXljcG9/ZTwy8jIwJs8m9HI3XEvd16nlXh9lQbXuUlcs0trT4rAyyLoYkiuHEwxZ5DJagt1dApWgqUtgp8ATsuRnJ88DJAWWhUuellZVYzNLTXVNRmr1pxvTp/OU+D0HD161MG2X/y+5557nL59+148f/78mtj8+fPfnz179jUAPx3pxRbBn376ya3PBSORVp+74CqvQPXc5KKTUOi0P30vGUZunqn91pxg274SIZQm8EtAcVfclk6/5VS7Ab02IEk+mEI/KV9SZrzk0+9YuAKRIUUYD8Hk/lO/x44dcy6++GIHv2H5Ofjfu+uuu8bgXX2w/Ij5O3fu7IJfuhNhwa/K2Ms+VMkcW1Dabh8NOnmpWs8rhErkmLySUEH7kQob7dh4c0H64x4gKQ/+Hfc0g+YEgihrXc7Ai9/cwB0/fty55JJLnNraWqe0tNS56KKLTlv+/Pz8/87Ly7sOb+xBzA/wI+aH28+BGRb4NGmmzR9Su4MGW/Bzi8QHnwjaVcKU6nF/ovmickHDeglcwHmoJueDQOpHVmQoIXcbElA5DaYNOEGUjk0dlQJQhSe8LXr+ww8/OP3793d+/PFHp6ysDDF/HPxvz5kzZzzALy2/l8vvx13xSsjI0EIVg9kwR7ppiRZsPzSkStlE80inDMN4BDqFkmgek/Igi69KHnNZDTMmFe0mj4DzVvLEy/1Hu7D4ffv2dX+Xl5eftfxz5859c/78+TfhjT0jRoxwM4JI+NXV1TWj0SQoXlZQamO6KcjUZtAJprgqWe0HpSuR9XTConPxVQLSWvxRyUaiwROGtzy04O4+zwWp8klh+gxa1493RWVh8fv06RMHf9zyz549e+eSJUtuy87Ojmf7kfDj4DcJiUlrSfAnQpunussddPITVc80p4nqh7v9Og8wkX0FaYusPtXVebVczk0yL+nwW143Dr/gR7/I3/Xo0cMN5ZcuXYrMf9/8/PzvsLf/maVLl87BwR6y/AD/iRMn4v1LQaGBqOIr1a6pIBMS1QnPAa/QTAX+RAloUMrPpTfAFQAtL+q8JVVoaoq/g/LEtp6KVqIJe3bgzeM6vqKiImzm63rHHXfUIeH3dyUlJctvuOEGd4cf3P5u3bq54CcXiBOgcytVgubXunjt/7ZlQiqXS7Q3I/kfNp+SbN7agj+okrLxOP2499KTMdFles49DxteqPIAfI7wHIqMr7Ll5+c7Dz/8cMz1yGbNmvXL8vLyR3GNF+75wrJAz5493d8mYQyaWdUJUXsHv44vtkKjcjWlMEhFnmxAm9q3EXJTG7bPTfJMIQrx22T5qZz8bUtPIsvpLD/HKD4vXLjQWb9+/Wnwr169Oi8Wi2194oknXIuP+ACvj8KGAJXlloCP1tYTOYXJb8uvN5Zsilob/GQNbcbFaeOerS0P+Z4V6XXItsPyQVcfl/Ig3kemH2v9CO2fffbZ0+AvKCiY3Njo/H7Pnv9wsB6I47xk+VWWPQL/WbHRhUBhJ9JGMG3K6OizqevHBQ3qmZCl9UNPmLIU19t6rLpTf37AT6Fz0E1BtuPVyRzifIAeh3qwy2/48OE/P/fcc51d3i9Zsmxy46n63+99e697hVf37t3dHX5QBKqYX5e5R2O2TLEdUFTOPwe8gGg7P7wNG2DblNGNpK0oSj+ctskdkGJrrUSgjo+4dRsn+rB5D/v7hw0bdmDbtm0jXfpWrVo1vra29t+rqqrS8epkuAhwFfhV3RzYOgGK3H8/4nO6bBjQ6HoztelHAVAfyQRoMtv2PyN2NciKmzwIjgkap2m8qsS5HVUtr+9CPYTxAwYMcPE8ZswYhPZPbtmyZYEL/tLS0iEnT578Q69evQa+9NJL7ll+eACI/+EyEDEqL4ATFYHfdor05UzADd9D2/POTGBIxJgT3YZt+EBWX+fyy/kOO/8qXgL0F154oVNdXe3s2bPHWbNmTeHrr79e6YK/srKy0zvvvLNvwoQJVz3yyCMu2AH+fv36uZsC8LdJwyWauanYHilHTAB2MKp+ZLaZZ4n9Tjz1Jy05tSPdTa7EuUU3eQLcEnnlEGQ5P2Ggyo3mfeE5AIR/qaQseMKP80c3Bp0M2MqGql0Yc/w7fPiw88orr2B7b+5HH330nAt+/Hf11Vfvv/POOzN/9atfuZl+gB2bAvi7+SIF4G2xoShpTRUl8ZkDjoPRJmbUZZp1VHhtTJHuO894y3oqZWADOF6Pxsq/0ykZqax04wOQkIuCICc7eZYo40Megspr5oYgzHikQXFBHXNh7f4ggY+Deoj7s7KyGnbs2DGjqqpqVxz806ZN+/XUqVPvr6iocAYOHOgm+xD385d1hgW/ishEMTmZ7dhoXYRHiK1QFszmh0J0MRwXDG4lVUDj33E+qmiTFh9tyyUnqZS4oMhnXvOmatfLqqmUEJ87Fe2gB3tOYIjgUXXt2tXlcSr86JS8/J7Lgo2iNY2d2gBmabduQUGB89FHH307bNiwKzdt2vR/cfCvXLmyR5cuXY5XVla6sT4qkzBLYQirBEyEt+ZzHTA5DTbgx8EJ/JBwkhcgLaC8q8DUj7SWZLFtBURaXqlEqH9ba6+yYBzQOmFXhRzcQkkvRyoV/A3wQ8nC+sMrteVBa8pTmL5IAajasJFBqVjxN87nXHrppQ7e0Zebm+vs3Lmz+tNPPx0UL0sfcnNzv8/IyOj98ssvu+uC0Lb8dJ/XxIcZ9Lmo64eZXvRRO/CUMHkAP6wSkiwq7e7V1rnyjDidbRlQAD+Fo/xllOdCfpLRp0yYeykDkxyRJwn5hLKEEli2bBkSfgveeOONJ1uAf+bMmQ+sXbt2/aRJk5wLLrjArQAvADuD0EhQi58ooMkByxhTxxBdrOkl6Nwj0NXnmhaKkpJRAD/nl8qVNYHMpk9TmWQIqN82eTxPAqnzDui5ap7RDhQqeIx9KKni9vvlFy9PchMkH4C64Bd282F9/+DBg7iv/9RDDz3UKRaLNbUAf2Zm5t/OmzfvxV27dnXEsgDAjkM+0LKU+AuqAMIwwQbUNkCW7ZgASOVNIEM74A+UJcrKgyE2oYXJS6CknImPtmMyeTOmflRCiu94/zzhqWqPynLlKMMk8jaJhzBGkEeei/JDayqVpXMuqi3CpnGAj6iH/Agu7bz//vudQ4cO/f2mTZvKm80d/VFZWdl1+/btf5owYcKAzZs3uxlCMB3ZVXmTr6nzsM91MSj3IlTxsKpfk+VXeRAkdH7AhFOQ0LYqpUEunM7qkVKV/VE9L3p4uOCHXmmJdXR7KV8vpeXXW+RuLs0zzQ0EGSEohLktGaCwcu5Vn1t+mn+pEFCfn9ij9shYYJs+8iQvvfRSU3l5ed7u3bvdJb4Wlh9fZGdnV86cOXMx4gMsDeAHwOdLfskYsJd15QJtssLJoM22TdBGcSkYjvhfegGqEICPSRf3qSZYZ015ezp+qRSnaQ4IdDIk4grKhleSB6rYlpfh6/s2XpQNDedbGRkawAsdPny4m7S/5pprYMBrBw4c2LuioqJBC348yM/Prx85cmSnxx9/3N3qC7cBcRZltMMyTjWBJsFTWSWd5QpLX5j6Oo9FthlWiak8CO4Vmcbgp6yuLZOXYeqDeywmeqUBMPVtau98e84VKEKiy4Zf5hz+6rB7MrekpAQv4rl68+bNH8hxn90NcOZJdnb2oytWrPjl6tWr3TgWCT+4tHD/0XAQwQ1Sp5mGisUC9cuVRiIERifQXqGFX2VnAk1rC64tPSoPLRE8N403bB+p7E0kwReiAAAJc0lEQVTwvEnclY/FcEGna7Sxp7+wsHDvvHnz/lrpKcovy8vLr/rggw/+OHbs2DRYf+wLRnYVLi29wssvmP2WN014sp9zgefxp0rQbMfGXVnpmocV4ETzg4+ZC5VXPybeUJvJGKuuTZPi4vOQDLoSPS8tLHcs1izJCnzill4YaeTstm3b5qxbt654x44d/2gFfhSaPn36YsT/zzzzjJvxh9XHWjbWDCn+B+NUgq9iuC1AgjBLB1S0xd1j1WfeHxd4lTXwEm4/LqxqjCYhteGLKhSwqWfyjmwso443reWu6/rxAreUSS8FYqsAvfidiDn2Aj8ATxv0kJ+59tprsVv3P3v27JlVUVHRaA1+FJwxY8a+VatW/dWsWbPcjCEaxno2NAr+1gl8GPD7YZDJIsvB2rbtpaj4mE2Al89tQGQCq9cYTPSgbapvm0CkOlyRqpSFTvEEtaY6XtnOoYmPYZ4HHVOYPnV1KdanZGzv3r3dOQZG16xZ89XOnTt/sXXr1lptfd2DyZMn/yI9Pf2ziRMnOhs2bHA3/qBhJP64B2DSdmEHnagJVwm8yr1V9ceFWyWYuu9UgJTCo1OWfoVM0uCHb34VKVckXkon2dY0rGwFrR/Go/EzLyb6QAcsPmQbwAdG4anjjM77779/+2OPPfavXm20SPjxwmVlZdP69Omz/dChQz127drlgh6dYfkPoQA/769zZ00DCMsMW4vqZdGlNZM0kYBTGzqabWJPWdfGUzIpDJ0Ly3nDy3gpFlmHxs7r8E1HfpUUd6GDKB2TPLXGc1MIGNTr9Es7Hb4D8LH56ZtvvnEWLVp0qrq6+jdPPfXUSlN7nuBH2Dxz5szVQ4cOrfj666+d1157zdUwGDw0DD7Tmf+g4OfAk22oBI+XgfBwYeUgtQWMl8uqAiq3elyQuYvM3WQdMHl51Th1yorTZOPqS7CZBAJrxhAqfjJRN07QwteYbRUxn3Pej2rOOC9NtPsBna0y9Nun9Aok76Sh8ds+lQfusPEJBhlL8l999ZWzceNG56233vqXmpqa3D179jRb01f1YwK/W2fGjBkPXHfddStqamp6vfrqq+4SIL3Vhw6zyCPAEgw65WCKF7mwq9x0DgB8Vu0A433I/nT9m+gNMmmcfnnCz8YjCNKnzThUCkXFM6l4dYLtl07ZV9BQyEb5hPU0bcamkqmgHpLkOa24YQUOwMcyfGZmpjN16tT6ffv2bX3hhRcW2tDoKlXLgrHly5dfd/Dgwf/C7j+82gtHBWnbL1YCcAkIFAH2BXDt5sVsnWVVCZXKEprqS6tHlkpHE3kSOgVh4pWXC287+ToFJ4XAJsRAHdoSalIC0ovwotfm4hATr3TPpTJXWUqVLJiUuLTItvMRdBySbpVXA4MJzHjRwuUBOENcj5AbyXeE3VOmTHHwwp3du3cXjBkzZosusx/Y8lPFrKysoUOGDNmcmZl5y4EDB3D/t7sPAMRjKyENhi60gJbycwjDxkX2sj5e9ckTUbllOvfZpLhc7cluTeETTs90nosteG2Fz49F81OWj4OPV2dl/bStmy8ZBvG+VMCXSt7kTdryNJHlTHKi6ovjB0oCK274DtZ+/Pjxzrhx43BW/7P9+/fn4Co+v/TaWv5m7Y4bNy5r1KhRr86aNas7lgJpjRGhALQRPAL8w8ECHMbAZ7ocRIKQT6ZOcEgYJJD8DlaWV7m7XvToFIduTCrgqwSbynGh1XkpEnScXhtrZvJOVN6Ul9Xk49F5LV4eGh+PyjpKBWtSLjpFLudezoONLJn6tmnDi18AOPqAhafldWyth6eF7+DFAfh4wc7+/fsb3nzzzXUffvjhr236DW35eQNr167t/MknnywePXr0A01NTf2QEHz66addQvltK3T9EgbN3UU6/84FXjUhUtOrhN/k0vE25OEZEi5OH4FZgpr6kQKmsoImy446Js/C5KXQc3kqUAqYrXDorKpuDlRemE55yu+lovDyvnSWn9rgeR5+mIp47DV+L2Whmlfu3enkzqse91JQn9x+opVyaBgTTolSjJ+Tk+Mm9k6ePNl04MCBjUeOHNleVVX1P7Zzm1Dw88aysrJmjRw58je5ubkXbd++PePFF190YxJYe3gDyAdwDQ6tRsDCIOnsN58IDkYT4DlYVcCFZyJdQal0dGAlJSWFl08ijU1l6fkzqUw4T6h9U/ZbKimVteTjVXk7KmuqFA4W0vB+8JnTwXkk6aE55asCsi2VIpCKVmep6Xs5P0QTHyuXM918q76XSWSVt8L7VykUHf2oR3ThN+2ghQHFZp2ysjLk137e8s9bvt33x31PV1dXP4j9WmFAH5fdRDRCbWSd/hnsOM6y+vr6q+GywCN44YUX3KUIaDX8w6AwOXQjCxcQYjRtXiDBQBkkOiST0Te5Syow6canasdWY0uLx0FPwsM9GzqWSr8l+OTfXPClkuEKRGWRpTUyWW2psLhSxmfMB+VtqC1uUUkRoCwlF1WKliskDiYJfOKF7o4DnRImPnEaaSx8jJx/ZHik8eDjIGDqeM1lBvIMGaXx03kYLi9SCUB2+/fv71x//fXO6NGj3RAZ6/VnXP39x44d+11VVdWfDx8+vNtxnFOJxGugmN+GgLFjx3ZpaGi4f8SIEbdOmjSp25AhQwbV1tZ2eeutt5x3333X9QwI/DQJXCjwTGpc/rcUMEmTTrOrwKQDGAminHhV2yqLx4XKRI+Jp0Hqq7wCHZ/kGGU5lWI01TGNifNXxWOpZDgNJqUmFbSNEfCSIWnNpfdC7joMGylEfIYBhOeLk3YAOe7HxDsxsEZ/BuinDh8+fOKLL7745tNPPz3+5Zdf1p46derJPn36bP3444/P3g5jw0yfZZIGfk5HZmZm78bGxpEDBgzoMXz48P51dXUTGxoaruvYsWO/tLS0zmcsN5xJp8lpcmn67rvvOtTU1HSjdqBRcUEBzxvwCVFZG/pObu1V7QUwCQu3UKoNMNJ6qObBC8DSJeW76KTl0lk5GxqkZeQ0EV8IdKpn3HKq+uOgVI2BvlNZcPTnNTeyDv19Zn5dV1h4dI1NTU1N1G4sFotbTtxl19TU1OzvM+40yp86U8+tDwfozN13jR06dMAhmYampib3u1gs5v7doUOHk42NjQ319fVosz4tLa3OcZza9PT0Hzt06PBDLBY73rFjxyNNTU3fHT9+/EhNTc2PR44caaqvr29IS0s7lpGR8b+fffbZtz7xG6r4/wMwUk6w8gEEvAAAAABJRU5ErkJggg==;" vertex="1" parent="1">
                    <mxGeometry x="40" y="20" width="255" height="520" as="geometry"/>
                </mxCell>
                <mxCell id="3" value="『入力エリア』に入力後『確定』ボタンクリックで下段に表示される。" style="text;html=1;strokeColor=none;fillColor=none;align=left;verticalAlign=middle;whiteSpace=wrap;rounded=0;" vertex="1" parent="1">
                    <mxGeometry x="310" y="140" width="170" height="30" as="geometry"/>
                </mxCell>
                <mxCell id="4" value="右端✓ボタンクリックで消える" style="text;html=1;strokeColor=none;fillColor=none;align=left;verticalAlign=middle;whiteSpace=wrap;rounded=0;" vertex="1" parent="1">
                    <mxGeometry x="310" y="241" width="170" height="30" as="geometry"/>
                </mxCell>
            </root>
        </mxGraphModel>
    </diagram>
</mxfile>